<svg width="544" height="221" viewBox="0 0 544 221" fill="none" xmlns="http://www.w3.org/2000/svg">
<path d="M90.0068 215.043V216.043H91.0068H143.751H144.751V215.043V169.213H166.168H167.168V168.213V125.34V124.34H166.168H144.751V5.95745V4.95745H143.751H73.2054H72.6296L72.3405 5.45547L1.13512 128.136L1 128.369V128.638V168.213V169.213H2H90.0068V215.043ZM90.0068 124.34H57.0758L75.4051 90.1964L75.4153 90.1774L75.4246 90.158C78.5035 83.7778 81.4726 77.5073 84.3318 71.3465L84.3318 71.3465L84.3373 71.3345C86.9566 65.489 89.4837 59.7356 91.9187 54.0742C91.6829 60.6479 91.2663 68.2201 90.6685 76.7921L90.6677 76.8037L90.6671 76.8153C90.2271 86.2797 90.0068 94.5406 90.0068 101.596V124.34ZM215.164 191.905L215.172 191.916C229.863 210.62 248.941 220 272.33 220C295.719 220 314.689 210.62 329.161 191.911C343.856 172.978 351.128 145.461 351.128 109.511C351.128 73.7838 343.858 46.6976 329.152 28.4182C314.677 10.1517 295.708 1 272.33 1C248.95 1 229.874 10.1522 215.18 28.4157L215.179 28.4168C200.69 46.479 193.531 73.5682 193.531 109.511C193.531 145.458 200.692 172.973 215.164 191.905ZM292.455 68.5188L292.456 68.5241C294.624 77.4175 295.724 91.0601 295.724 109.511C295.724 127.958 294.625 141.827 292.454 151.167C290.265 160.58 287.355 166.691 283.865 169.772C280.286 172.931 276.449 174.468 272.33 174.468C268.211 174.468 264.374 172.931 260.794 169.772C257.304 166.691 254.394 160.58 252.206 151.167C250.035 141.827 248.935 127.958 248.935 109.511C248.935 91.0601 250.035 77.4175 252.203 68.5241L252.205 68.5188C254.395 59.317 257.298 53.5761 260.74 50.9432L260.754 50.9322L260.768 50.9207C264.345 47.9743 268.19 46.5319 272.33 46.5319C276.469 46.5319 280.315 47.9743 283.891 50.9207L283.905 50.9322L283.919 50.9432C287.361 53.5761 290.265 59.317 292.455 68.5188ZM465.839 215.043V216.043H466.839H519.583H520.583V215.043V169.213H542H543V168.213V125.34V124.34H542H520.583V5.95745V4.95745H519.583H449.037H448.462L448.173 5.45547L376.967 128.136L376.832 128.369V128.638V168.213V169.213H377.832H465.839V215.043ZM465.839 124.34H432.908L451.237 90.1964L451.247 90.1774L451.257 90.158C454.336 83.7778 457.305 77.5073 460.164 71.3465L460.169 71.3345C462.789 65.489 465.316 59.7356 467.751 54.0742C467.515 60.6479 467.098 68.2201 466.5 76.7921L466.5 76.8037L466.499 76.8153C466.059 86.2797 465.839 94.5406 465.839 101.596V124.34Z" stroke="#291F69" stroke-width="2"/>
</svg>
