<svg width="249" height="279" viewBox="0 0 249 279" fill="none" xmlns="http://www.w3.org/2000/svg">
<mask id="path-1-inside-1_40_30" fill="white">
<path d="M109.5 4.66023C118.782 -0.698754 130.218 -0.698755 139.5 4.66023L233.775 59.0897C243.057 64.4487 248.775 74.3525 248.775 85.0705V193.929C248.775 204.647 243.057 214.551 233.775 219.91L139.5 274.34C130.218 279.699 118.782 279.699 109.5 274.34L15.2256 219.91C5.94356 214.551 0.225586 204.647 0.225586 193.929V85.0705C0.225586 74.3525 5.94355 64.4487 15.2256 59.0897L109.5 4.66023Z"/>
</mask>
<path d="M126 211C126 210.448 125.553 210 125 210C124.448 210 124 210.448 124 211H126ZM124.293 251.707C124.684 252.098 125.317 252.098 125.707 251.707L132.071 245.343C132.462 244.953 132.462 244.319 132.071 243.929C131.681 243.538 131.048 243.538 130.657 243.929L125 249.586L119.343 243.929C118.953 243.538 118.32 243.538 117.929 243.929C117.539 244.319 117.539 244.953 117.929 245.343L124.293 251.707ZM124 211V251H126V211H124ZM15.2256 59.0897L16.2256 60.8218L15.2256 59.0897ZM15.2256 219.91L16.2256 218.178L15.2256 219.91ZM139.5 274.34L138.5 272.608L138.5 272.608L139.5 274.34ZM109.5 274.34L108.5 276.072L109.5 274.34ZM233.775 219.91L234.775 221.642L234.775 221.642L233.775 219.91ZM233.775 59.0897L232.775 60.8218L232.775 60.8218L233.775 59.0897ZM139.5 4.66023L140.5 2.92818L140.5 2.92818L139.5 4.66023ZM109.5 4.66023L108.5 2.92818L109.5 4.66023ZM138.5 6.39228L232.775 60.8218L234.775 57.3577L140.5 2.92818L138.5 6.39228ZM246.775 85.0705V193.929H250.775V85.0705H246.775ZM232.775 218.178L138.5 272.608L140.5 276.072L234.775 221.642L232.775 218.178ZM110.5 272.608L16.2256 218.178L14.2256 221.642L108.5 276.072L110.5 272.608ZM2.22559 193.929V85.0705H-1.77441V193.929H2.22559ZM16.2256 60.8218L110.5 6.39228L108.5 2.92818L14.2256 57.3577L16.2256 60.8218ZM2.22559 85.0705C2.22559 75.0671 7.56236 65.8235 16.2256 60.8218L14.2256 57.3577C4.32475 63.0739 -1.77441 73.638 -1.77441 85.0705H2.22559ZM16.2256 218.178C7.56236 213.176 2.22559 203.933 2.22559 193.929H-1.77441C-1.77441 205.362 4.32475 215.926 14.2256 221.642L16.2256 218.178ZM138.5 272.608C129.837 277.609 119.163 277.609 110.5 272.608L108.5 276.072C118.401 281.788 130.599 281.788 140.5 276.072L138.5 272.608ZM246.775 193.929C246.775 203.933 241.438 213.176 232.775 218.178L234.775 221.642C244.676 215.926 250.775 205.362 250.775 193.929H246.775ZM232.775 60.8218C241.438 65.8235 246.775 75.067 246.775 85.0705H250.775C250.775 73.638 244.676 63.0739 234.775 57.3577L232.775 60.8218ZM140.5 2.92818C130.599 -2.78807 118.401 -2.78807 108.5 2.92818L110.5 6.39228C119.163 1.39056 129.837 1.39056 138.5 6.39228L140.5 2.92818Z" fill="white" mask="url(#path-1-inside-1_40_30)"/>
</svg>
