<svg width="80" height="80" viewBox="0 0 80 80" fill="none" xmlns="http://www.w3.org/2000/svg">
    <path fill-rule="evenodd" clip-rule="evenodd"
        d="M-1.74846e-06 40C-2.7141e-06 62.0914 17.9086 80 40 80C62.0914 80 80 62.0914 80 40C80 17.9086 62.0914 -7.8281e-07 40 -1.74846e-06C17.9086 -2.7141e-06 -7.8281e-07 17.9086 -1.74846e-06 40ZM42.3333 51.0167C41.7152 51.6386 40.8768 51.9919 40 52C39.1174 51.9963 38.2722 51.6426 37.65 51.0167L30.4833 43.8667C30.1717 43.5528 29.9975 43.128 29.9991 42.6858C30.0006 42.2435 30.1778 41.82 30.4917 41.5083C30.8055 41.1967 31.2303 41.0225 31.6726 41.0241C32.1148 41.0256 32.5384 41.2028 32.85 41.5167L38.3333 47L38.3333 30.3333C38.3333 29.8913 38.5089 29.4674 38.8215 29.1548C39.1341 28.8423 39.558 28.6667 40 28.6667C40.442 28.6667 40.866 28.8423 41.1785 29.1548C41.4911 29.4674 41.6667 29.8913 41.6667 30.3333L41.6667 47L47.1333 41.5167C47.2883 41.3605 47.4726 41.2365 47.6757 41.1518C47.8788 41.0672 48.0966 41.0237 48.3167 41.0237C48.5367 41.0237 48.7545 41.0672 48.9576 41.1518C49.1607 41.2365 49.3451 41.3605 49.5 41.5167C49.8104 41.8289 49.9847 42.2514 49.9847 42.6917C49.9847 43.132 49.8104 43.5544 49.5 43.8667L42.3333 51.0167Z"
        fill="white" />
</svg>