<svg width="40" height="40" viewBox="0 0 40 40" fill="none" xmlns="http://www.w3.org/2000/svg">
<path d="M20 0C11.4891 0 4.56494 6.92415 4.56494 15.435C4.56494 18.3739 5.3658 21.4941 6.94518 24.7087C8.19753 27.2577 9.94066 29.8736 12.1262 32.4838C15.8364 36.9151 19.4878 39.7584 19.6414 39.8774C19.7469 39.9591 19.8736 39.9999 20 39.9999C20.1265 39.9999 20.2532 39.9591 20.3587 39.8774C20.5124 39.7585 24.1637 36.9151 27.8739 32.4838C30.0594 29.8736 31.8026 27.2576 33.0549 24.7087C34.6343 21.4941 35.4352 18.3739 35.4352 15.435C35.4352 6.92415 28.511 0 20 0ZM20 10.0987C22.9425 10.0987 25.3364 12.4925 25.3364 15.435C25.3364 18.3775 22.9426 20.7714 20 20.7714C17.0575 20.7714 14.6637 18.3775 14.6637 15.435C14.6637 12.4925 17.0575 10.0987 20 10.0987Z" fill="#D9AE5F"/>
<path d="M19.9999 0C19.4208 0 18.8492 0.0331251 18.2864 0.0956252C25.9938 0.950861 32.008 7.5033 32.008 15.4351C32.008 18.374 31.2072 21.4942 29.6277 24.7088C28.3754 27.2578 26.6323 29.8737 24.4467 32.4839C22.0662 35.327 19.7101 37.5163 18.2864 38.7519C19.0817 39.4422 19.5861 39.8348 19.6412 39.8774C19.7468 39.9591 19.8734 39.9999 19.9999 39.9999C20.1264 39.9999 20.253 39.9591 20.3586 39.8774C20.5122 39.7585 24.1635 36.9151 27.8737 32.4838C30.0592 29.8736 31.8024 27.2576 33.0548 24.7087C34.6341 21.4941 35.435 18.3739 35.435 15.435C35.435 6.92415 28.5109 0 19.9999 0Z" fill="#D4AA5D"/>
</svg>
