<svg width="64" height="64" viewBox="0 0 64 64" fill="none" xmlns="http://www.w3.org/2000/svg">
<g clip-path="url(#clip0_606_165)">
<path d="M49.5168 56.9139C46.1918 62.3068 39.8165 65.0226 33.6325 63.6449C26.6818 62.0964 19.1238 57.8829 12.6206 51.3798C6.11663 44.8758 1.90313 37.3177 0.354756 30.3667C-1.02274 24.1827 1.69276 17.8074 7.08576 14.4824C8.29463 13.7371 9.85726 13.9199 10.8615 14.9242L18.3201 22.3828C19.7193 23.7819 19.4458 26.1206 17.7614 27.1589L14.7136 29.0381C13.4345 29.8267 12.9138 31.4259 13.4879 32.8146C14.734 35.8282 16.9856 39.9991 21.0156 43.8763C24.6204 47.3443 28.3775 49.3553 31.1974 50.5184C32.5816 51.0894 34.176 50.5627 34.9619 49.2881L36.8416 46.2392C37.8801 44.5548 40.2186 44.2813 41.6178 45.6804L49.0753 53.1379C50.0795 54.1422 50.2623 55.7048 49.517 56.9137L49.5168 56.9139Z" fill="#D9AE5F"/>
<path d="M36.4335 46.9019L48.2265 58.6949C48.6945 58.1389 49.1272 57.5455 49.5167 56.9138L49.517 56.9134C50.2623 55.7045 50.0796 54.1419 49.0752 53.1376L41.6177 45.6801C40.2186 44.281 37.88 44.5545 36.8416 46.2389L36.4333 46.901L36.4335 46.9019Z" fill="#D0A14B"/>
<path d="M17.0989 27.5673L17.7614 27.1589C19.4457 26.1204 19.7193 23.7819 18.3202 22.3828L10.8616 14.9241C9.85732 13.9199 8.29469 13.7371 7.08582 14.4824C6.45394 14.8719 5.86044 15.3048 5.30444 15.7729L17.0987 27.5671L17.0989 27.5673Z" fill="#D0A14B"/>
<path d="M64 20.4917C64 9.07405 54.662 -0.16258 43.2065 0.00217019C32.1101 0.161795 23.0873 9.26192 23.017 20.3592C22.9778 26.5739 25.7059 32.1515 30.0408 35.9348C30.4983 36.334 30.4324 37.0627 29.9098 37.3719L26.0485 39.6564C25.4243 40.0258 25.6864 40.9828 26.4116 40.9825L43.8963 40.9783C55.0344 40.7714 64 31.6792 64 20.4917Z" fill="#291F69"/>
<path d="M43.2064 0.00217019C42.6585 0.0100452 42.1159 0.0405452 41.579 0.0911702C51.989 1.0658 60.1366 9.82667 60.1366 20.4917C60.1366 31.6792 51.171 40.7714 40.0331 40.9784L26.4004 40.9818C26.4043 40.9818 26.4078 40.9828 26.4118 40.9828L43.8964 40.9785C55.0343 40.7714 63.9999 31.6792 63.9999 20.4917C63.9999 9.07405 54.6619 -0.16258 43.2064 0.00217019Z" fill="#221767"/>
<path d="M43.5251 35.1435C44.5919 35.1435 45.4568 34.2787 45.4568 33.2119C45.4568 32.1451 44.5919 31.2803 43.5251 31.2803C42.4583 31.2803 41.5935 32.1451 41.5935 33.2119C41.5935 34.2787 42.4583 35.1435 43.5251 35.1435Z" fill="white"/>
<path d="M43.5083 27.4722C42.4416 27.4722 41.5767 26.6073 41.5767 25.5405V19.44C41.5767 18.3733 42.4416 17.5084 43.5083 17.5084C44.5882 17.5084 45.5932 17.0763 46.3382 16.2917C47.0827 15.5075 47.4617 14.4792 47.4054 13.3955C47.3001 11.3665 45.6239 9.74504 43.5897 9.70404C43.5631 9.70342 43.5363 9.70317 43.5098 9.70317C41.5671 9.70317 39.9123 11.1328 39.6436 13.0589C39.6184 13.2387 39.6057 13.4227 39.6057 13.6057C39.6057 14.6724 38.7408 15.5373 37.6741 15.5373C36.6073 15.5373 35.7424 14.6724 35.7424 13.6057C35.7424 13.2448 35.7676 12.8812 35.8173 12.525C36.3601 8.63554 39.7372 5.75979 43.6674 5.84154C47.7171 5.92317 51.0536 9.15329 51.2633 13.1952C51.3749 15.3472 50.6208 17.3914 49.1397 18.9514C48.1313 20.0135 46.8402 20.7629 45.4398 21.1248V25.5403C45.4399 26.6073 44.5751 27.4722 43.5083 27.4722Z" fill="white"/>
</g>
<defs>
<clipPath id="clip0_606_165">
<rect width="64" height="64" fill="white"/>
</clipPath>
</defs>
</svg>
