<svg width="52" height="43" viewBox="0 0 52 43" fill="none" xmlns="http://www.w3.org/2000/svg">
<path d="M0.082704 42.3177C0.082704 42.3177 15.8864 37.9701 29.4133 33.197C48.3337 26.5302 48.42 15.0407 52 0.487305C32.0825 8.63635 24.8049 10.6364 19.7097 12.2109C-2.3903 19.0691 0.082704 42.3177 0.082704 42.3177Z" fill="#00D4A6"/>
<g clip-path="url(#clip0_61_8)">
<path d="M35.9265 16.1611L35.2417 15.5383L21.7695 25.9406V27.7893L22.4543 28.412C22.5525 28.5013 22.7116 28.5013 22.8098 28.412L35.9266 16.4843C36.0246 16.395 36.0246 16.2503 35.9265 16.1611Z" fill="white"/>
<path d="M33.6263 14.3928L22.632 24.3905L18.3737 20.5182C18.2755 20.429 18.1164 20.429 18.0182 20.5182L16.0736 22.2866C15.9755 22.3759 15.9755 22.5206 16.0736 22.6099L21.7694 27.7894L35.2416 15.5384L33.9817 14.3928C33.8836 14.3035 33.7244 14.3035 33.6263 14.3928Z" fill="white"/>
</g>
<defs>
<clipPath id="clip0_61_8">
<rect width="20" height="18.1871" fill="white" transform="translate(16 12.3088)"/>
</clipPath>
</defs>
</svg>
