<svg width="56" height="46" viewBox="0 0 56 46" fill="none" xmlns="http://www.w3.org/2000/svg">
<path d="M12.8078 46C8.62936 46 5.45012 44.4845 3.27007 41.4535C1.09002 38.3333 0 34.0543 0 28.6163C0 22.2868 1.58962 16.7151 4.76886 11.9012C8.03893 6.99807 12.8986 3.03101 19.3479 0L23.708 8.55814C19.6204 10.5194 16.532 12.8818 14.4428 15.6454C12.4444 18.3198 11.4453 21.6182 11.4453 25.5407L11.9903 37.0407L5.45012 28.0814C6.44931 27.2791 7.58475 26.6105 8.85645 26.0756C10.1281 25.5407 11.4453 25.2733 12.8078 25.2733C15.7145 25.2733 18.1671 26.1647 20.1654 27.9477C22.2547 29.6415 23.2993 32.0039 23.2993 35.0349C23.2993 38.4225 22.3001 41.0969 20.3017 43.0581C18.3942 45.0194 15.8962 46 12.8078 46ZM45.0998 46C40.9213 46 37.7421 44.4845 35.562 41.4535C33.382 38.3333 32.292 34.0543 32.292 28.6163C32.292 22.2868 33.8816 16.7151 37.0608 11.9012C40.3309 6.99807 45.1906 3.03101 51.6399 0L56 8.55814C51.9124 10.5194 48.824 12.8818 46.7348 15.6454C44.7364 18.3198 43.7372 21.6182 43.7372 25.5407L44.2822 37.0407L37.7421 28.0814C38.7413 27.2791 39.8767 26.6105 41.1484 26.0756C42.4201 25.5407 43.7372 25.2733 45.0998 25.2733C48.0065 25.2733 50.459 26.1647 52.4574 27.9477C54.5466 29.6415 55.5912 32.0039 55.5912 35.0349C55.5912 38.4225 54.5921 41.0969 52.5937 43.0581C50.6861 45.0194 48.1882 46 45.0998 46Z" fill="#E2B560"/>
</svg>
