<svg width="53" height="46" viewBox="0 0 53 46" fill="none" xmlns="http://www.w3.org/2000/svg">
<path d="M4.11651 46L0 37.4667C3.85922 35.5111 6.7322 33.2 8.61893 30.5333C10.5914 27.7778 11.5777 24.4 11.5777 20.4L11.0631 8.93333L17.3665 17.8667C16.3374 18.6667 15.2225 19.3333 14.0218 19.8667C12.907 20.4 11.7063 20.6667 10.4199 20.6667C7.67557 20.6667 5.31715 19.7778 3.34466 18C1.45793 16.2222 0.514563 13.8667 0.514563 10.9333C0.514563 7.55555 1.41505 4.88889 3.21602 2.93334C5.10275 0.977778 7.50405 0 10.4199 0C14.3649 0 17.3665 1.55555 19.4248 4.66666C21.483 7.68889 22.5121 11.9556 22.5121 17.4667C22.5121 23.7778 21.0113 29.3333 18.0097 34.1333C15.0081 38.8444 10.377 42.8 4.11651 46ZM34.6044 46L30.4879 37.4667C34.3471 35.5111 37.2201 33.2 39.1068 30.5333C41.0793 27.7778 42.0655 24.4 42.0655 20.4L41.551 8.93333L47.8544 17.8667C46.8252 18.6667 45.7104 19.3333 44.5097 19.8667C43.3948 20.4 42.1942 20.6667 40.9078 20.6667C38.1634 20.6667 35.805 19.7778 33.8325 18C31.9458 16.2222 31.0024 13.8667 31.0024 10.9333C31.0024 7.55555 31.9029 4.88889 33.7039 2.93334C35.5906 0.977778 37.9919 0 40.9078 0C44.8528 0 47.8544 1.55555 49.9126 4.66666C51.9709 7.68889 53 11.9556 53 17.4667C53 23.7778 51.4992 29.3333 48.4976 34.1333C45.496 38.8444 40.8649 42.8 34.6044 46Z" fill="#E2B560"/>
</svg>
