<svg width="190" height="58" viewBox="0 0 190 58" fill="none" xmlns="http://www.w3.org/2000/svg">
<g clip-path="url(#clip0_991_385)">
<path d="M25.2491 26.6489C25.2491 25.1472 25.2205 23.6392 25.1655 22.1208C25.0574 19.1483 27.027 16.5134 29.8813 15.8547L33.0844 15.1152V34.1206C33.0844 38.5162 29.5776 42.0811 25.2491 42.0811V26.6489Z" fill="#2A2A68"/>
<path d="M68.4155 23.5397C69.125 21.7169 70.1383 20.1654 71.4534 18.8831C72.7684 17.6009 74.3669 16.6191 76.2508 15.9314C78.1326 15.2457 80.1939 14.9019 82.4326 14.9019C84.5285 14.9019 86.4103 15.2001 88.0822 15.7946C89.752 16.3891 91.1466 17.2467 92.2659 18.3674C93.3852 19.4859 94.2293 20.8406 94.7982 22.4294C95.367 24.0182 95.6504 25.7686 95.6504 27.6826C95.6504 29.7768 95.3221 31.7156 94.6636 33.5033C94.0071 35.2889 93.0386 36.8507 91.7582 38.1868C90.4799 39.5229 88.8814 40.5524 86.9608 41.2732C85.0423 41.9961 82.8933 42.3566 80.512 42.3566C78.3447 42.3566 76.4261 42.05 74.7563 41.4369C73.0865 40.8237 71.7001 39.9579 70.5991 38.8372C69.4981 37.7166 68.6806 36.3743 68.1484 34.8041C67.6163 33.234 67.3492 31.4919 67.3492 29.5779C67.3492 27.376 67.7039 25.3626 68.4155 23.5397ZM76.6749 34.6405C77.101 36.8611 77.7677 38.5389 78.6729 39.6761C79.5802 40.8134 80.6017 41.3809 81.7373 41.3809C82.873 41.3809 83.8251 40.8672 84.5876 39.8377C85.3522 38.8082 85.9373 37.4017 86.3471 35.6141C86.7549 33.8264 86.9608 31.9041 86.9608 29.8472C86.9608 26.7794 86.7121 24.2067 86.2146 22.1311C85.7171 20.0556 85.0606 18.4937 84.2431 17.4476C83.4255 16.4016 82.4305 15.8775 81.2582 15.8775C80.0858 15.8775 79.1623 16.3912 78.3793 17.4207C77.5985 18.4502 77.0113 19.8671 76.6198 21.6713C76.2284 23.4755 76.0326 25.4081 76.0326 27.4651C76.0326 30.0274 76.2467 32.4199 76.6728 34.6405" fill="#2A2A68"/>
<path d="M109.19 15.1152L109.101 23.8877C110.344 20.6024 111.543 18.3384 112.697 17.0914C113.851 15.8464 115.121 15.2229 116.508 15.2229C117.609 15.2229 118.514 15.4032 119.226 15.7657V22.3714C116.905 20.3021 110.793 21.3999 109.099 25.3502V34.0688C109.099 38.4934 105.567 42.0832 101.21 42.0832V26.5433C101.21 24.9732 101.186 23.4734 101.137 22.0462C101.035 19.1048 102.968 16.4948 105.783 15.8092L109.186 15.1194L109.19 15.1152Z" fill="#2A2A68"/>
<path d="M153.093 42.4042H142.998L134.378 28.4428C136.825 26.3713 138.448 24.6852 139.235 23.3843C141.237 20.6293 142.403 17.6651 142.748 14.4875H151.447C147.256 21.1223 143.463 24.9959 141.433 25.6878C142.262 26.5681 148.693 36.0511 153.093 42.4042Z" fill="#2A2A68"/>
<path d="M125.044 42.4042C129.666 42.4042 133.414 38.5969 133.414 33.901V0L129.911 0.832714C126.924 1.54114 124.845 4.30029 124.944 7.41571C125.012 9.4975 125.044 11.5461 125.044 13.5616V42.4042Z" fill="#2A2A68"/>
<path d="M181.239 38.2406C181.096 38.3131 180.903 38.3939 180.654 38.483C180.405 38.5741 180.191 38.6197 180.014 38.6197C178.913 38.6197 178.362 37.7352 178.362 35.9662V23.0239C178.362 21.1824 177.944 19.6226 177.11 18.3404C176.276 17.0582 175.086 16.1654 173.54 15.66C171.995 15.1546 170.315 14.9019 168.504 14.9019C166.586 14.9019 164.561 15.1463 162.429 15.6331C160.298 16.1199 158.343 16.7972 156.567 17.6631L156.549 25.0166H157.366C157.892 23.2953 161.299 15.8775 167.118 15.8775C168.076 15.8775 168.894 16.3912 169.569 17.4207C170.244 18.4502 170.582 19.7759 170.582 21.3999V26.651C166.568 27.3366 163.493 28.159 161.362 29.1139C159.23 30.0709 157.739 31.1087 156.885 32.2273C156.033 33.3459 155.607 34.5929 155.607 35.9641C155.607 37.3354 155.98 38.4913 156.726 39.5374C157.472 40.5834 158.351 41.3146 159.364 41.731C160.378 42.1453 161.309 42.3524 162.162 42.3524C163.44 42.3524 164.763 41.992 166.131 41.2691C167.499 40.5482 168.982 39.3199 170.582 37.5881C170.759 39.0671 171.257 40.2313 172.074 41.0806C172.892 41.9278 173.993 42.3524 175.379 42.3524C176.658 42.3524 177.848 42.0106 178.949 41.3229C180.05 40.6373 180.939 39.8066 181.614 38.8331L181.241 38.2365L181.239 38.2406ZM170.58 36.5069C170.048 37.12 169.416 37.6171 168.688 37.9962C167.96 38.3753 167.312 38.5638 166.743 38.5638C165.819 38.5638 165.038 38.1391 164.398 37.2919C163.758 36.4447 163.438 35.2806 163.438 33.7995C163.438 31.958 164.033 30.5515 165.224 29.5759C166.415 28.6002 168.201 27.9332 170.58 27.5707V36.5048V36.5069Z" fill="#2A2A68"/>
<path d="M62.4783 25.4619C62.4783 22.4667 62.5925 18.8914 62.8209 14.7402L58.4088 16.0949C55.9907 15.3016 53.7195 14.9039 51.595 14.9039C49.6662 14.9039 47.8435 15.2829 46.1268 16.0411C44.4101 16.7992 42.9238 17.8639 41.6658 19.2352C40.4078 20.6065 39.4272 22.2409 38.7238 24.1362C38.0224 26.0316 37.6697 28.0616 37.6697 30.2283C37.6697 32.0677 37.9225 33.7559 38.4302 35.2909C38.9358 36.8258 39.6229 38.1163 40.4894 39.1624C41.3559 40.2105 42.3448 41.0039 43.4559 41.5445C44.5671 42.0872 45.6946 42.3565 46.8384 42.3565C49.4868 42.3565 52.28 40.8775 55.2221 37.9174L55.008 46.0747C56.056 45.8137 60.6128 43.734 62.4967 40.9003C62.4845 39.9226 62.4783 35.7652 62.4783 34.7585V25.4661V25.4619ZM55.2221 36.8859C54.7634 37.3913 54.1517 37.7973 53.3831 38.1039C52.6144 38.4104 51.9029 38.5637 51.2504 38.5637C49.4216 38.5637 48.0148 37.644 47.0341 35.8025C46.0534 33.961 45.562 31.3987 45.562 28.1134C45.562 26.0192 45.8067 24.0078 46.2981 22.0772C46.7894 20.1446 47.4582 18.62 48.3084 17.5014C49.1586 16.3829 50.1372 15.8236 51.2504 15.8236C52.0028 15.8236 52.7367 16.0763 53.4565 16.5817C54.1762 17.0872 54.7634 17.7376 55.2221 18.5309V36.8859Z" fill="#2A2A68"/>
<path d="M41.7474 58C41.7474 58 45.6294 56.7985 48.9547 55.4811C53.6033 53.6375 53.6257 50.4641 54.5045 46.4414C49.6133 48.693 47.8232 49.2461 46.5713 49.6811C41.1398 51.5765 41.7474 58 41.7474 58Z" fill="#2A2A68"/>
<path d="M181.961 38.566C181.961 38.566 184.407 37.8078 186.503 36.9772C189.433 35.8151 189.447 33.8162 190 31.2808C186.917 32.6997 185.79 33.0477 185.001 33.3232C181.578 34.5163 181.961 38.566 181.961 38.566Z" fill="#2A2A68"/>
<path d="M25.2471 14.5828C25.2471 14.5828 29.3512 13.313 32.8642 11.9189C37.7778 9.97177 37.8002 6.61605 38.7299 2.36548C33.5594 4.74555 31.6694 5.32969 30.3462 5.78955C24.6048 7.79262 25.2471 14.5807 25.2471 14.5807" fill="#E2B560"/>
<path d="M8.90571 42.7232C7.13192 42.7232 5.53958 42.5119 4.12666 42.0893C2.71578 41.6667 1.41092 41.1427 0.216154 40.5171L0.271203 33.9527H0.813536L2.66073 37.2629C3.45588 38.7336 4.33462 39.8273 5.29492 40.5461C6.25317 41.2628 7.47648 41.6212 8.96076 41.6212C10.6979 41.6212 12.1006 41.2276 13.1689 40.4363C14.2353 39.645 14.7715 38.5886 14.7715 37.2629C14.7715 36.049 14.3902 35.0568 13.6318 34.2842C12.8713 33.5115 11.4604 32.8134 9.39707 32.1879L7.11561 31.4712C4.90754 30.8083 3.17044 29.7809 1.90228 28.3827C0.634117 26.9865 0.0020752 25.2755 0.0020752 23.2517C0.0020752 20.824 0.944022 18.765 2.82588 17.0727C4.70773 15.3803 7.40512 14.5352 10.916 14.5352C12.3269 14.5352 13.6583 14.6926 14.9081 15.0033C16.1579 15.3161 17.3608 15.7863 18.5189 16.4098L18.1927 22.3672H17.6503L15.7501 18.9473C15.061 17.7334 14.3841 16.8779 13.7133 16.3829C13.0425 15.8857 12.0374 15.6372 10.6999 15.6372C9.46843 15.6372 8.31037 15.9872 7.2257 16.6853C6.139 17.3834 5.59667 18.3777 5.59667 19.664C5.59667 20.9504 6.05948 21.9074 6.98104 22.6427C7.90464 23.3802 9.27067 24.0596 11.0791 24.6831L13.5237 25.3998C16.1293 26.2097 17.9949 27.3221 19.1162 28.7369C20.2376 30.1537 20.8003 31.8544 20.8003 33.8388C20.8003 36.5234 19.7605 38.6756 17.6789 40.2934C15.5972 41.9112 12.6735 42.7211 8.90979 42.7211" fill="#2A2A68"/>
</g>
<defs>
<clipPath id="clip0_991_385">
<rect width="190" height="58" fill="white"/>
</clipPath>
</defs>
</svg>
