<svg width="190" height="79" viewBox="0 0 190 79" fill="none" xmlns="http://www.w3.org/2000/svg">
<path d="M19.4059 72.077C19.4059 69.3447 21.1227 67.7204 23.3348 67.7204C24.5174 67.7204 25.3309 68.2304 25.8528 68.7814L25.0638 69.6888C24.6438 69.2812 24.1606 69.0129 23.3858 69.0129C21.9117 69.0129 20.9188 70.1619 20.9188 72.0401C20.9188 73.9184 21.7955 75.094 23.4612 75.094C23.9322 75.094 24.3889 74.967 24.656 74.7233V72.9229H23.08V71.7083H25.9792V75.3869C25.4206 75.9481 24.4542 76.3824 23.3226 76.3824C21.0717 76.3824 19.4059 74.8503 19.4059 72.079" fill="white"/>
<path d="M28.3973 73.8897V69.955H29.8592V73.6971C29.8592 74.7315 30.1508 75.1145 30.8256 75.1145C31.3721 75.1145 31.7411 74.8585 32.2121 74.2461V69.953H33.6739V76.2246H32.4792L32.365 75.305H32.3262C31.7798 75.9563 31.1682 76.3783 30.318 76.3783C28.9825 76.3783 28.3973 75.4709 28.3973 73.8876M28.9825 68.0666C28.9825 67.6324 29.3128 67.2882 29.7593 67.2882C30.2058 67.2882 30.5341 67.6324 30.5341 68.0666C30.5341 68.5008 30.216 68.8449 29.7593 68.8449C29.3026 68.8449 28.9825 68.5008 28.9825 68.0666ZM31.6004 68.0666C31.6004 67.6324 31.9185 67.2882 32.3752 67.2882C32.8319 67.2882 33.1499 67.6324 33.1499 68.0666C33.1499 68.5008 32.8196 68.8449 32.3752 68.8449C31.9307 68.8449 31.6004 68.5008 31.6004 68.0666Z" fill="white"/>
<path d="M35.5191 69.955H37.0075L37.9984 73.2117C38.1635 73.8262 38.3552 74.4632 38.5203 75.1022H38.5713C38.7487 74.4632 38.9281 73.8241 39.1055 73.2117L40.0964 69.955H41.5073L39.3828 76.2267H37.6925L35.5191 69.955Z" fill="white"/>
<path d="M42.855 73.0847C42.855 71.0406 44.2781 69.8014 45.7542 69.8014C47.4587 69.8014 48.3232 71.0406 48.3232 72.7775C48.3232 73.0581 48.2987 73.3141 48.2457 73.5435H44.3311C44.4962 74.6926 45.271 75.2046 46.1355 75.2046C46.6697 75.2046 47.1529 75.051 47.5851 74.7704L48.0928 75.7146C47.5076 76.1243 46.7451 76.3783 45.9561 76.3783C44.2006 76.3783 42.8529 75.178 42.8529 73.0827M44.3556 72.4211H47.0265C47.0265 71.526 46.6187 70.9648 45.7807 70.9648C45.1711 70.9648 44.535 71.3089 44.3576 72.4211" fill="white"/>
<path d="M50.4864 69.955H51.6934L51.7954 70.7989H51.8464C52.405 70.25 53.0411 69.8035 53.8934 69.8035C55.2288 69.8035 55.814 70.7108 55.814 72.2941V76.2288H54.3521V72.4866C54.3521 71.4523 54.0585 71.0693 53.3735 71.0693C52.8271 71.0693 52.4703 71.3376 51.9503 71.8476V76.2288H50.4885V69.9571L50.4864 69.955Z" fill="white"/>
<path d="M58.3707 74.5922V67.2104H59.8326V74.6701C59.8326 75.0408 59.9977 75.1555 60.1629 75.1555C60.2261 75.1555 60.2771 75.1555 60.379 75.1309L60.5707 76.2288C60.3933 76.3045 60.1384 76.3557 59.7959 76.3557C58.754 76.3557 58.3728 75.6921 58.3728 74.5922" fill="white"/>
<path d="M62.426 68.0154C62.426 67.5177 62.7828 67.1858 63.3027 67.1858C63.8227 67.1858 64.1795 67.5177 64.1795 68.0154C64.1795 68.5131 63.8227 68.8592 63.3027 68.8592C62.7828 68.8592 62.426 68.5274 62.426 68.0154ZM62.579 69.955H64.0408V76.2267H62.579V69.955Z" fill="white"/>
<path d="M69.6742 72.077C69.6742 69.3447 71.3909 67.7204 73.6031 67.7204C74.7857 67.7204 75.5992 68.2304 76.1211 68.7814L75.3321 69.6888C74.9121 69.2812 74.4289 69.0129 73.6541 69.0129C72.18 69.0129 71.1871 70.1619 71.1871 72.0401C71.1871 73.9184 72.0638 75.094 73.7295 75.094C74.2005 75.094 74.6572 74.967 74.9243 74.7233V72.9229H73.3483V71.7083H76.2475V75.3869C75.6889 75.9481 74.7224 76.3824 73.5909 76.3824C71.34 76.3824 69.6742 74.8503 69.6742 72.079" fill="white"/>
<path d="M78.3088 73.0847C78.3088 71.0406 79.7319 69.8014 81.2081 69.8014C82.9126 69.8014 83.7771 71.0406 83.7771 72.7775C83.7771 73.0581 83.7526 73.3141 83.6996 73.5435H79.785C79.9501 74.6926 80.7249 75.2046 81.5894 75.2046C82.1235 75.2046 82.6067 75.051 83.039 74.7704L83.5467 75.7146C82.9615 76.1243 82.199 76.3783 81.4099 76.3783C79.6545 76.3783 78.3068 75.178 78.3068 73.0827M79.8094 72.4211H82.4803C82.4803 71.526 82.0726 70.9648 81.2346 70.9648C80.625 70.9648 79.9888 71.3089 79.8115 72.4211" fill="white"/>
<path d="M85.9383 74.5922V67.2104H87.4001V74.6701C87.4001 75.0408 87.5653 75.1555 87.7304 75.1555C87.7936 75.1555 87.8446 75.1555 87.9465 75.1309L88.1362 76.2288C87.9588 76.3045 87.7039 76.3557 87.3614 76.3557C86.3195 76.3557 85.9383 75.6921 85.9383 74.5922Z" fill="white"/>
<path d="M89.7285 73.0847C89.7285 71.0406 91.1516 69.8014 92.6278 69.8014C94.3323 69.8014 95.1968 71.0406 95.1968 72.7775C95.1968 73.0581 95.1723 73.3141 95.1193 73.5435H91.2047C91.3698 74.6926 92.1446 75.2046 93.009 75.2046C93.5432 75.2046 94.0264 75.051 94.4587 74.7704L94.9664 75.7146C94.3812 76.1243 93.6187 76.3783 92.8296 76.3783C91.0742 76.3783 89.7265 75.178 89.7265 73.0827M91.2291 72.4211H93.9C93.9 71.526 93.4923 70.9648 92.6543 70.9648C92.0447 70.9648 91.4085 71.3089 91.2312 72.4211" fill="white"/>
<path d="M96.9502 73.0991C96.9502 71.0037 98.412 69.8035 100.078 69.8035C100.879 69.8035 101.464 70.0841 101.909 70.506L101.209 71.4134C100.93 71.1696 100.6 71.0037 100.153 71.0037C99.1623 71.0037 98.4487 71.8333 98.4487 73.0991C98.4487 74.3649 99.1358 75.1821 100.127 75.1821C100.61 75.1821 101.054 74.9896 101.399 74.6844L101.996 75.5918C101.474 76.0772 100.763 76.3844 99.9881 76.3844C98.2591 76.3844 96.9481 75.1842 96.9481 73.1011" fill="white"/>
<path d="M103.271 73.0847C103.271 71.0406 104.694 69.8014 106.17 69.8014C107.874 69.8014 108.739 71.0406 108.739 72.7775C108.739 73.0581 108.714 73.3141 108.661 73.5435H104.747C104.912 74.6926 105.687 75.2046 106.551 75.2046C107.085 75.2046 107.569 75.051 108.001 74.7704L108.509 75.7146C107.923 76.1243 107.161 76.3783 106.372 76.3783C104.616 76.3783 103.269 75.178 103.269 73.0827M104.771 72.4211H107.442C107.442 71.526 107.034 70.9648 106.196 70.9648C105.587 70.9648 104.951 71.3089 104.773 72.4211" fill="white"/>
<path d="M110.354 77.3635C110.354 76.8391 110.672 76.3803 111.245 76.0219V75.9707C110.927 75.7659 110.686 75.434 110.686 74.924C110.686 74.414 111.016 74.0167 111.373 73.7627V73.7115C110.953 73.392 110.56 72.7918 110.56 72.0504C110.56 70.6064 111.718 69.8014 113.027 69.8014C113.371 69.8014 113.687 69.8649 113.942 69.955H116.181V71.0406H115.01V71.0918C115.239 71.3478 115.392 71.6796 115.392 72.1139C115.392 73.4944 114.35 74.2338 113.027 74.2338C112.76 74.2338 112.454 74.1826 112.174 74.0679C111.985 74.2338 111.871 74.3874 111.871 74.668C111.871 75.0264 112.125 75.2435 112.888 75.2435H113.993C115.494 75.2435 116.283 75.7024 116.283 76.79C116.283 78.0291 114.986 79 112.951 79C111.463 79 110.358 78.4634 110.358 77.3655M111.155 66.9933L112.019 66.852C112.109 67.4521 112.476 68.0154 113.226 68.0154C113.977 68.0154 114.346 67.4542 114.436 66.852L115.3 66.9933C115.237 68.0277 114.639 68.9596 113.226 68.9596C111.814 68.9596 111.218 68.0277 111.155 66.9933ZM114.868 77.0317C114.868 76.5462 114.474 76.407 113.763 76.407H112.91C112.568 76.407 112.301 76.3803 112.058 76.3168C111.728 76.5729 111.575 76.8535 111.575 77.1464C111.575 77.7076 112.185 78.0414 113.178 78.0414C114.17 78.0414 114.868 77.5683 114.868 77.0317ZM114.105 72.0504C114.105 71.2577 113.634 70.8112 113.025 70.8112C112.415 70.8112 111.932 71.2577 111.932 72.0504C111.932 72.843 112.415 73.3141 113.025 73.3141C113.634 73.3141 114.105 72.8553 114.105 72.0504Z" fill="white"/>
<path d="M117.526 73.0847C117.526 71.0406 118.95 69.8014 120.426 69.8014C122.13 69.8014 122.995 71.0406 122.995 72.7775C122.995 73.0581 122.97 73.3141 122.917 73.5435H119.003C119.168 74.6926 119.942 75.2046 120.807 75.2046C121.341 75.2046 121.824 75.051 122.257 74.7704L122.764 75.7146C122.179 76.1243 121.417 76.3783 120.628 76.3783C118.872 76.3783 117.524 75.178 117.524 73.0827M119.027 72.4211H121.698C121.698 71.526 121.29 70.9648 120.452 70.9648C119.843 70.9648 119.206 71.3089 119.029 72.4211" fill="white"/>
<path d="M128.589 67.874H130.063V71.6674H130.102L133.065 67.874H134.704L132.149 71.1307L135.136 76.2267H133.509L131.258 72.2941L130.063 73.7873V76.2267H128.589V67.874Z" fill="white"/>
<path d="M136.474 74.541C136.474 73.1359 137.593 72.4723 140.162 72.1917C140.137 71.5527 139.856 71.016 139.018 71.016C138.408 71.016 137.823 71.272 137.263 71.6039L136.728 70.6084C137.416 70.1742 138.305 69.8035 139.297 69.8035C140.849 69.8035 141.624 70.762 141.624 72.5235V76.2267H140.415L140.313 75.5365H140.262C139.677 76.0219 139.067 76.3803 138.329 76.3803C137.236 76.3803 136.472 75.6389 136.472 74.541M140.16 74.541V73.2117C138.455 73.4165 137.897 73.7996 137.897 74.4386C137.897 74.9752 138.278 75.1801 138.786 75.1801C139.293 75.1801 139.701 74.9752 140.16 74.541Z" fill="white"/>
<path d="M144.154 74.0945V71.1184H143.263V70.0206L144.229 69.9571L144.407 67.9908H145.628V69.9571H147.218V71.1205H145.628V74.0965C145.628 74.8257 145.907 75.1944 146.505 75.1944C146.721 75.1944 146.949 75.1555 147.153 75.0674L147.42 76.1018C147.09 76.241 146.643 76.3578 146.136 76.3578C144.686 76.3578 144.152 75.4504 144.152 74.0965" fill="white"/>
<path d="M150.754 69.955H149.292V76.2267H150.754V69.955Z" fill="white"/>
<path d="M153.386 74.5922V67.2104H154.848V74.6701C154.848 75.0408 155.013 75.1555 155.178 75.1555C155.241 75.1555 155.292 75.1555 155.394 75.1309L155.584 76.2288C155.407 76.3045 155.152 76.3557 154.809 76.3557C153.767 76.3557 153.386 75.6921 153.386 74.5922Z" fill="white"/>
<path d="M159.056 69.955H157.594V76.2267H159.056V69.955Z" fill="white"/>
<path d="M161.69 69.955H162.897L162.999 70.8112H163.05C163.572 70.25 164.182 69.8014 164.957 69.8014C165.872 69.8014 166.394 70.2234 166.686 70.9259C167.283 70.2868 167.907 69.8014 168.694 69.8014C170.017 69.8014 170.627 70.7088 170.627 72.2921V76.2267H169.153V72.4846C169.153 71.4502 168.849 71.0672 168.198 71.0672C167.805 71.0672 167.373 71.3232 166.889 71.8456V76.2267H165.428V72.4846C165.428 71.4502 165.122 71.0672 164.461 71.0672C164.08 71.0672 163.635 71.3232 163.152 71.8456V76.2267H161.69V69.955Z" fill="white"/>
<path d="M25.2473 26.3504C25.2473 24.8654 25.2188 23.3743 25.1637 21.873C25.0556 18.9338 27.0252 16.3284 29.8796 15.6771L33.0827 14.9459V33.7383C33.0827 38.0847 29.5758 41.6097 25.2473 41.6097V26.3504Z" fill="white"/>
<path d="M68.4142 23.276C69.1237 21.4736 70.137 19.9395 71.4521 18.6716C72.7672 17.4038 74.3656 16.4329 76.2496 15.7529C78.1314 15.0749 80.1927 14.7349 82.4314 14.7349C84.5274 14.7349 86.4092 15.0299 88.0811 15.6177C89.7509 16.2055 91.1455 17.0535 92.2649 18.1616C93.3842 19.2697 94.2283 20.6072 94.7971 22.1782C95.366 23.7492 95.6494 25.4799 95.6494 27.3725C95.6494 29.4432 95.3211 31.3604 94.6626 33.128C94.0061 34.8935 93.0376 36.4379 91.7572 37.759C90.4788 39.0801 88.8803 40.0981 86.9597 40.8109C85.0412 41.5257 82.8922 41.8821 80.5108 41.8821C78.3435 41.8821 76.4249 41.5789 74.7551 40.9727C73.0852 40.3664 71.6988 39.5102 70.5978 38.4021C69.4968 37.2941 68.6792 35.9668 68.1471 34.4143C67.615 32.8617 67.3479 31.1391 67.3479 29.2466C67.3479 27.0693 67.7026 25.0785 68.4142 23.276ZM76.6736 34.2524C77.0998 36.4481 77.7665 38.1072 78.6717 39.2317C79.579 40.3562 80.6005 40.9174 81.7361 40.9174C82.8718 40.9174 83.824 40.4094 84.5865 39.3914C85.3511 38.3735 85.9362 36.9827 86.346 35.2151C86.7538 33.4475 86.9597 31.5467 86.9597 29.5129C86.9597 26.4794 86.711 23.9355 86.2135 21.8832C85.716 19.8309 85.0595 18.2865 84.2419 17.2522C83.4243 16.2178 82.4294 15.6996 81.257 15.6996C80.0847 15.6996 79.1611 16.2076 78.3781 17.2256C77.5973 18.2435 77.0101 19.6445 76.6186 21.4285C76.2271 23.2125 76.0314 25.1235 76.0314 27.1574C76.0314 29.6911 76.2455 32.0568 76.6716 34.2524" fill="white"/>
<path d="M109.189 14.9459L109.1 23.6201C110.343 20.3716 111.542 18.1329 112.696 16.8999C113.85 15.6689 115.121 15.0524 116.507 15.0524C117.608 15.0524 118.513 15.2306 119.225 15.589V22.1208C116.905 20.0746 110.792 21.1602 109.098 25.0662V33.6871C109.098 38.0621 105.566 41.6117 101.209 41.6117V26.2459C101.209 24.6934 101.185 23.2105 101.136 21.7992C101.034 18.8908 102.967 16.31 105.783 15.632L109.185 14.95L109.189 14.9459Z" fill="white"/>
<path d="M153.092 41.9292H142.998L134.378 28.1242C136.824 26.0759 138.447 24.4087 139.234 23.1224C141.236 20.3983 142.403 17.4673 142.747 14.3253H151.447C147.255 20.8857 143.463 24.7159 141.432 25.4C142.262 26.2705 148.693 35.6473 153.092 41.9292Z" fill="white"/>
<path d="M125.044 41.9292C129.666 41.9292 133.413 38.1646 133.413 33.5212V0L129.911 0.823386C126.924 1.52388 124.844 4.25211 124.944 7.33264C125.011 9.39111 125.044 11.4168 125.044 13.4097V41.9292Z" fill="white"/>
<path d="M181.239 37.8123C181.096 37.8839 180.903 37.9638 180.654 38.0519C180.405 38.142 180.191 38.1871 180.014 38.1871C178.913 38.1871 178.362 37.3125 178.362 35.5633V22.766C178.362 20.9451 177.944 19.4028 177.11 18.135C176.276 16.8671 175.086 15.9843 173.54 15.4846C171.995 14.9848 170.315 14.7349 168.504 14.7349C166.586 14.7349 164.561 14.9766 162.428 15.4579C160.298 15.9393 158.342 16.609 156.567 17.4652L156.548 24.7364H157.366C157.892 23.0343 161.299 15.6996 167.118 15.6996C168.076 15.6996 168.894 16.2076 169.569 17.2256C170.243 18.2435 170.582 19.5544 170.582 21.1602V26.3524C166.567 27.0304 163.493 27.8436 161.362 28.7878C159.229 29.7341 157.739 30.7602 156.885 31.8663C156.032 32.9723 155.606 34.2053 155.606 35.5613C155.606 36.9172 155.979 38.0601 156.726 39.0944C157.472 40.1288 158.351 40.8518 159.364 41.2635C160.377 41.6732 161.309 41.878 162.161 41.878C163.44 41.878 164.763 41.5216 166.131 40.8068C167.499 40.094 168.981 38.8794 170.582 37.1671C170.759 38.6295 171.257 39.7806 172.074 40.6204C172.892 41.4581 173.993 41.878 175.379 41.878C176.658 41.878 177.848 41.54 178.949 40.86C180.05 40.1821 180.939 39.3607 181.614 38.3981L181.241 37.8082L181.239 37.8123ZM170.58 36.0979C170.048 36.7042 169.416 37.1957 168.688 37.5706C167.96 37.9454 167.311 38.1318 166.743 38.1318C165.819 38.1318 165.038 37.7119 164.398 36.8742C163.758 36.0365 163.438 34.8853 163.438 33.4209C163.438 31.6 164.033 30.2093 165.224 29.2445C166.414 28.2798 168.2 27.6203 170.58 27.2619V36.0979Z" fill="white"/>
<path d="M62.477 25.1768C62.477 22.215 62.5912 18.6798 62.8195 14.5752L58.4074 15.9147C55.9893 15.1302 53.718 14.737 51.5935 14.737C49.6648 14.737 47.842 15.1118 46.1253 15.8614C44.4086 16.6111 42.9222 17.6639 41.6643 19.0198C40.4063 20.3757 39.4256 21.9918 38.7222 23.8659C38.0208 25.74 37.6681 27.7473 37.6681 29.8897C37.6681 31.7086 37.9209 33.3779 38.4286 34.8956C38.9342 36.4133 39.6213 37.6894 40.4878 38.7237C41.3543 39.7601 42.3432 40.5446 43.4544 41.0792C44.5656 41.6158 45.6931 41.8821 46.8369 41.8821C49.4853 41.8821 52.2786 40.4197 55.2207 37.4927L55.0066 45.5586C56.0546 45.3006 60.6114 43.2441 62.4954 40.4422C62.4831 39.4754 62.477 35.3646 62.477 34.3692V25.1768ZM55.2207 36.4727C54.7619 36.9725 54.1503 37.3739 53.3816 37.6771C52.613 37.9802 51.9014 38.1318 51.249 38.1318C49.4201 38.1318 48.0133 37.2224 47.0326 35.4015C46.0519 33.5806 45.5605 31.047 45.5605 27.7985C45.5605 25.7277 45.8052 23.7389 46.2966 21.83C46.7879 19.919 47.4567 18.4115 48.3069 17.3054C49.1571 16.1994 50.1357 15.6464 51.249 15.6464C52.0013 15.6464 52.7353 15.8963 53.455 16.396C54.1747 16.8958 54.7619 17.5389 55.2207 18.3234V36.4727Z" fill="white"/>
<path d="M41.7458 57.3503C41.7458 57.3503 45.6278 56.1623 48.9532 54.8596C53.6018 53.0367 53.6242 49.8988 54.503 45.9212C49.6118 48.1476 47.8216 48.6945 46.5698 49.1246C41.1382 50.9987 41.7458 57.3503 41.7458 57.3503Z" fill="white"/>
<path d="M181.961 38.1338C181.961 38.1338 184.407 37.3842 186.503 36.5628C189.433 35.4138 189.447 33.4373 190 30.9302C186.917 32.3333 185.79 32.6774 185.001 32.9498C181.577 34.1296 181.961 38.1338 181.961 38.1338Z" fill="white"/>
<path d="M25.2453 14.4195C25.2453 14.4195 29.3495 13.1639 32.8625 11.7855C37.7761 9.86015 37.7986 6.54203 38.7283 2.33907C33.5577 4.69248 31.6677 5.27008 30.3445 5.72479C24.603 7.70542 25.2453 14.4174 25.2453 14.4174" fill="white"/>
<path d="M8.90373 42.2446C7.12992 42.2446 5.53756 42.0357 4.12463 41.6179C2.71373 41.2 1.40886 40.6818 0.214081 40.0633L0.26913 33.5724H0.811469L2.65868 36.8455C3.45384 38.2997 4.33259 39.3812 5.2929 40.0919C6.25117 40.8006 7.47449 41.155 8.95878 41.155C10.6959 41.155 12.0986 40.7658 13.167 39.9834C14.2333 39.201 14.7696 38.1564 14.7696 36.8455C14.7696 35.6452 14.3883 34.6641 13.6298 33.9002C12.8693 33.1362 11.4584 32.4459 9.3951 31.8274L7.11361 31.1187C4.90552 30.4632 3.1684 29.4473 1.90022 28.0648C0.632049 26.6843 0 24.9924 0 22.9913C0 20.5908 0.941957 18.5549 2.82383 16.8815C4.70571 15.2081 7.40313 14.3724 10.9141 14.3724C12.325 14.3724 13.6563 14.5281 14.9062 14.8353C16.156 15.1446 17.3589 15.6095 18.517 16.226L18.1908 22.1167H17.6484L15.7482 18.7351C15.0591 17.5348 14.3822 16.6889 13.7114 16.1994C13.0406 15.7078 12.0354 15.462 10.6979 15.462C9.46646 15.462 8.30838 15.8082 7.22371 16.4984C6.13699 17.1887 5.59465 18.1718 5.59465 19.4438C5.59465 20.7157 6.05748 21.662 6.97904 22.3891C7.90265 23.1183 9.26869 23.7901 11.0772 24.4066L13.5218 25.1153C16.1274 25.9162 17.993 27.0161 19.1144 28.415C20.2358 29.816 20.7985 31.4976 20.7985 33.4598C20.7985 36.1143 19.7587 38.2424 17.677 39.8421C15.5953 41.4417 12.6716 42.2426 8.90781 42.2426" fill="white"/>
</svg>
