<?xml version="1.0" encoding="utf-8"?>
<!-- Generator: Adobe Illustrator 28.2.0, SVG Export Plug-In . SVG Version: 6.00 Build 0)  -->
<svg version="1.1" id="Layer_1" xmlns="http://www.w3.org/2000/svg" xmlns:xlink="http://www.w3.org/1999/xlink" x="0px" y="0px" width="230px" height="62.6px"
	 viewBox="0 0 230 62.6" style="enable-background:new 0 0 230 62.6;" xml:space="preserve">
<style type="text/css">
	.st0{fill:#FFFFFF;}
	.st1{fill:#E1B45F;}
</style>
<g>
	<g>
		<path class="st0" d="M35.8,55.3c0-2.9,1.8-4.6,4.2-4.6c1.3,0,2.1,0.5,2.7,1.1l-0.8,1c-0.4-0.4-1-0.7-1.8-0.7
			c-1.6,0-2.6,1.2-2.6,3.2c0,2,0.9,3.2,2.7,3.2c0.5,0,1-0.1,1.3-0.4v-1.9h-1.7v-1.3h3.1v3.9c-0.6,0.6-1.6,1.1-2.8,1.1
			C37.6,59.9,35.8,58.2,35.8,55.3"/>
		<path class="st0" d="M45.4,57.2v-4.2h1.5v4c0,1.1,0.3,1.5,1,1.5c0.6,0,1-0.3,1.5-0.9v-4.5H51v6.6h-1.3l-0.1-1h0
			c-0.6,0.7-1.2,1.1-2.1,1.1C46,59.9,45.4,58.9,45.4,57.2 M46,51.1c0-0.5,0.4-0.8,0.8-0.8c0.5,0,0.8,0.4,0.8,0.8
			c0,0.5-0.3,0.8-0.8,0.8C46.4,51.9,46,51.5,46,51.1 M48.8,51.1c0-0.5,0.3-0.8,0.8-0.8c0.5,0,0.8,0.4,0.8,0.8c0,0.5-0.4,0.8-0.8,0.8
			C49.1,51.9,48.8,51.5,48.8,51.1"/>
		<path class="st0" d="M53,53.1h1.6l1.1,3.4c0.2,0.7,0.4,1.3,0.6,2h0.1c0.2-0.7,0.4-1.4,0.6-2l1.1-3.4h1.5l-2.3,6.6h-1.8L53,53.1z"
			/>
		<path class="st0" d="M60.7,56.4c0-2.2,1.5-3.5,3.1-3.5c1.8,0,2.7,1.3,2.7,3.2c0,0.3,0,0.6-0.1,0.8h-4.2c0.2,1.2,1,1.8,1.9,1.8
			c0.6,0,1.1-0.2,1.5-0.5l0.5,1c-0.6,0.4-1.4,0.7-2.3,0.7C62.2,59.9,60.7,58.6,60.7,56.4 M62.3,55.7h2.8c0-1-0.4-1.5-1.3-1.5
			C63.2,54.1,62.5,54.5,62.3,55.7"/>
		<path class="st0" d="M68.9,53.1h1.3l0.1,0.9h0.1c0.6-0.6,1.3-1.1,2.2-1.1c1.4,0,2,1,2,2.6v4.2H73v-4c0-1.1-0.3-1.5-1-1.5
			c-0.6,0-1,0.3-1.5,0.8v4.6h-1.5V53.1z"/>
		<path class="st0" d="M77.2,58v-7.8h1.5v7.9c0,0.4,0.2,0.5,0.4,0.5c0.1,0,0.1,0,0.2,0l0.2,1.2c-0.2,0.1-0.5,0.1-0.8,0.1
			C77.6,59.9,77.2,59.1,77.2,58"/>
		<path class="st0" d="M81.5,51c0-0.5,0.4-0.9,0.9-0.9c0.6,0,0.9,0.4,0.9,0.9c0,0.5-0.4,0.9-0.9,0.9C81.9,51.9,81.5,51.6,81.5,51
			 M81.7,53.1h1.5v6.6h-1.5V53.1z"/>
		<path class="st0" d="M89.2,55.3c0-2.9,1.8-4.6,4.2-4.6c1.3,0,2.1,0.5,2.7,1.1l-0.8,1c-0.4-0.4-1-0.7-1.8-0.7
			c-1.6,0-2.6,1.2-2.6,3.2c0,2,0.9,3.2,2.7,3.2c0.5,0,1-0.1,1.3-0.4v-1.9h-1.7v-1.3h3.1v3.9c-0.6,0.6-1.6,1.1-2.8,1.1
			C91,59.9,89.2,58.2,89.2,55.3"/>
		<path class="st0" d="M98.4,56.4c0-2.2,1.5-3.5,3.1-3.5c1.8,0,2.7,1.3,2.7,3.2c0,0.3,0,0.6-0.1,0.8H100c0.2,1.2,1,1.8,1.9,1.8
			c0.6,0,1.1-0.2,1.5-0.5l0.5,1c-0.6,0.4-1.4,0.7-2.3,0.7C99.8,59.9,98.4,58.6,98.4,56.4 M100,55.7h2.8c0-1-0.4-1.5-1.3-1.5
			C100.9,54.1,100.2,54.5,100,55.7"/>
		<path class="st0" d="M106.5,58v-7.8h1.5v7.9c0,0.4,0.2,0.5,0.4,0.5c0.1,0,0.1,0,0.2,0l0.2,1.2c-0.2,0.1-0.5,0.1-0.8,0.1
			C106.9,59.9,106.5,59.1,106.5,58"/>
		<path class="st0" d="M110.5,56.4c0-2.2,1.5-3.5,3.1-3.5c1.8,0,2.7,1.3,2.7,3.2c0,0.3,0,0.6-0.1,0.8h-4.2c0.2,1.2,1,1.8,1.9,1.8
			c0.6,0,1.1-0.2,1.5-0.5l0.5,1c-0.6,0.4-1.4,0.7-2.3,0.7C112,59.9,110.5,58.6,110.5,56.4 M112.1,55.7h2.8c0-1-0.4-1.5-1.3-1.5
			C113,54.1,112.3,54.5,112.1,55.7"/>
		<path class="st0" d="M118.2,56.4c0-2.2,1.5-3.5,3.3-3.5c0.8,0,1.5,0.3,1.9,0.7l-0.7,1c-0.3-0.3-0.7-0.4-1.1-0.4
			c-1.1,0-1.8,0.9-1.8,2.2c0,1.3,0.7,2.2,1.8,2.2c0.5,0,1-0.2,1.4-0.5l0.6,1c-0.6,0.5-1.3,0.8-2.1,0.8
			C119.6,59.9,118.2,58.6,118.2,56.4"/>
		<path class="st0" d="M124.9,56.4c0-2.2,1.5-3.5,3.1-3.5c1.8,0,2.7,1.3,2.7,3.2c0,0.3,0,0.6-0.1,0.8h-4.2c0.2,1.2,1,1.8,1.9,1.8
			c0.6,0,1.1-0.2,1.5-0.5l0.5,1c-0.6,0.4-1.4,0.7-2.3,0.7C126.4,59.9,124.9,58.6,124.9,56.4 M126.5,55.7h2.8c0-1-0.4-1.5-1.3-1.5
			C127.4,54.1,126.7,54.5,126.5,55.7"/>
		<path class="st0" d="M132.5,60.9c0-0.6,0.3-1,1-1.4v-0.1c-0.3-0.2-0.6-0.6-0.6-1.1c0-0.5,0.4-1,0.7-1.2v-0.1
			c-0.4-0.3-0.9-1-0.9-1.8c0-1.5,1.2-2.4,2.6-2.4c0.4,0,0.7,0.1,1,0.2h2.4v1.1h-1.2v0.1c0.2,0.3,0.4,0.6,0.4,1.1
			c0,1.5-1.1,2.2-2.5,2.2c-0.3,0-0.6-0.1-0.9-0.2c-0.2,0.2-0.3,0.3-0.3,0.6c0,0.4,0.3,0.6,1.1,0.6h1.2c1.6,0,2.4,0.5,2.4,1.6
			c0,1.3-1.4,2.3-3.5,2.3C133.6,62.6,132.5,62.1,132.5,60.9 M133.3,49.9l0.9-0.1c0.1,0.6,0.5,1.2,1.3,1.2s1.2-0.6,1.3-1.2l0.9,0.1
			c-0.1,1.1-0.7,2.1-2.2,2.1C134,52,133.4,51,133.3,49.9 M137.2,60.6c0-0.5-0.4-0.7-1.2-0.7h-0.9c-0.4,0-0.7,0-0.9-0.1
			c-0.4,0.3-0.5,0.6-0.5,0.9c0,0.6,0.7,1,1.7,1C136.5,61.6,137.2,61.1,137.2,60.6 M136.4,55.3c0-0.8-0.5-1.3-1.1-1.3
			c-0.7,0-1.2,0.5-1.2,1.3s0.5,1.3,1.2,1.3C135.9,56.6,136.4,56.1,136.4,55.3"/>
		<path class="st0" d="M140.1,56.4c0-2.2,1.5-3.5,3.1-3.5c1.8,0,2.7,1.3,2.7,3.2c0,0.3,0,0.6-0.1,0.8h-4.2c0.2,1.2,1,1.8,1.9,1.8
			c0.6,0,1.1-0.2,1.5-0.5l0.5,1c-0.6,0.4-1.4,0.7-2.3,0.7C141.5,59.9,140.1,58.6,140.1,56.4 M141.7,55.7h2.8c0-1-0.4-1.5-1.3-1.5
			C142.5,54.1,141.9,54.5,141.7,55.7"/>
		<polygon class="st0" points="151.8,50.9 153.4,50.9 153.4,54.9 153.4,54.9 156.6,50.9 158.3,50.9 155.6,54.3 158.8,59.7 
			157.1,59.7 154.7,55.6 153.4,57.1 153.4,59.7 151.8,59.7 		"/>
		<path class="st0" d="M160.2,57.9c0-1.5,1.2-2.2,3.9-2.5c0-0.7-0.3-1.2-1.2-1.2c-0.7,0-1.3,0.3-1.9,0.6l-0.6-1.1
			c0.7-0.5,1.7-0.8,2.7-0.8c1.7,0,2.5,1,2.5,2.9v3.9h-1.3l-0.1-0.7h-0.1c-0.6,0.5-1.3,0.9-2.1,0.9C161,59.9,160.2,59.1,160.2,57.9
			 M164.1,57.9v-1.4c-1.8,0.2-2.4,0.6-2.4,1.3c0,0.6,0.4,0.8,1,0.8C163.2,58.6,163.6,58.4,164.1,57.9"/>
		<path class="st0" d="M168.4,57.5v-3.2h-1v-1.2l1-0.1l0.2-2.1h1.3v2.1h1.7v1.2h-1.7v3.2c0,0.8,0.3,1.2,0.9,1.2c0.2,0,0.5,0,0.7-0.1
			l0.3,1.1c-0.4,0.1-0.8,0.3-1.4,0.3C168.9,59.9,168.4,58.9,168.4,57.5"/>
		<rect x="173.8" y="53.1" class="st0" width="1.5" height="6.6"/>
		<path class="st0" d="M178.2,58v-7.8h1.5v7.9c0,0.4,0.2,0.5,0.4,0.5c0.1,0,0.1,0,0.2,0l0.2,1.2c-0.2,0.1-0.5,0.1-0.8,0.1
			C178.6,59.9,178.2,59.1,178.2,58"/>
		<rect x="182.6" y="53.1" class="st0" width="1.5" height="6.6"/>
		<path class="st0" d="M187,53.1h1.3l0.1,0.9h0.1c0.6-0.6,1.2-1.1,2-1.1c1,0,1.5,0.4,1.8,1.2c0.6-0.7,1.3-1.2,2.1-1.2
			c1.4,0,2.1,1,2.1,2.6v4.2h-1.6v-4c0-1.1-0.3-1.5-1-1.5c-0.4,0-0.9,0.3-1.4,0.8v4.6H191v-4c0-1.1-0.3-1.5-1-1.5
			c-0.4,0-0.9,0.3-1.4,0.8v4.6H187L187,53.1L187,53.1z"/>
	</g>
	<g>
		<path class="st1" d="M144.3,29.6c0-0.9,0.3-1.7,1-2.3c0.7-0.7,1.4-1,2.4-1c0.9,0,1.7,0.3,2.3,1c0.6,0.7,0.9,1.4,0.9,2.3
			c0,0.8-0.3,1.6-1,2.3c-0.7,0.7-1.4,1-2.4,1c-1,0-1.7-0.3-2.3-1C144.6,31.2,144.3,30.5,144.3,29.6z"/>
		<path class="st1" d="M162.5,32.8c-1.2,0-2.4-0.2-3.6-0.6c-1.1-0.4-2.1-1-3-1.8c-0.9-0.8-1.6-1.8-2.2-3.1c-0.5-1.3-0.8-2.7-0.8-4.3
			c0-3.2,1.1-5.9,3.2-8.1s4.8-3.2,8.1-3.2c2.3,0,4.4,0.3,6.6,0.9l-1.7,6.6l-0.5,0.1c0-0.5-0.2-1.3-0.6-2.4c-0.5-1.1-1.1-2.1-1.9-3
			c-0.8-1-1.6-1.4-2.4-1.4c-1.1,0-2.1,0.8-2.8,2.3c-0.7,1.5-1.1,3.5-1.1,5.8c0,1.5,0.2,2.9,0.5,4.1s0.8,2.1,1.4,2.9
			c0.6,0.7,1.3,1.2,2,1.6c0.7,0.4,1.5,0.5,2.4,0.5c0.8,0,1.7-0.1,2.5-0.4c0.8-0.3,1.5-0.7,2-1.2l0.3,0.5
			C168.5,31.4,165.7,32.8,162.5,32.8z"/>
		<path class="st1" d="M172.7,23c0-3.4,1.1-6.2,3.2-8.2s5-3,8.6-3c3.3,0,5.9,0.9,7.6,2.6s2.7,4.1,2.7,7.2c0,3.3-1,6-3.1,8.1
			c-2.1,2.1-5,3.1-8.7,3.1c-3.4,0-5.9-0.9-7.7-2.6C173.5,28.5,172.7,26.1,172.7,23z M179.4,21.4c0,3.2,0.4,5.8,1.1,7.7
			c0.8,1.9,1.9,2.9,3.3,2.9c0.7,0,1.3-0.3,1.9-0.8c0.5-0.5,1-1.2,1.3-2.1c0.3-0.9,0.5-1.8,0.7-2.8c0.1-1,0.2-2,0.2-3.1
			c0-2.1-0.2-3.9-0.5-5.5c-0.3-1.6-0.8-2.8-1.5-3.8c-0.7-0.9-1.5-1.4-2.5-1.4c-0.7,0-1.4,0.3-1.9,0.8c-0.5,0.5-1,1.2-1.3,2.1
			c-0.3,0.9-0.5,1.8-0.7,2.8C179.5,19.3,179.4,20.3,179.4,21.4z"/>
		<path class="st1" d="M208,14.8c-1.1,0-2.3,0.6-3.6,1.8v15.8h-6.1V20.5c0-2.4-0.1-4.9-0.3-7.3l6.1-1.5l0.4,4
			c1.1-1.2,2.3-2.1,3.4-2.9c1.1-0.7,2.3-1.1,3.6-1.1c1.2,0,2.3,0.4,3.3,1.1c1,0.7,1.7,1.8,2.1,3.1c1.2-1.3,2.4-2.3,3.6-3.1
			c1.2-0.8,2.4-1.1,3.8-1.1c1.7,0,3.1,0.6,4.2,1.9s1.7,2.9,1.7,5.1v13.6h-6.1V18.8c0-1.3-0.3-2.3-0.9-3c-0.6-0.7-1.3-1-2.3-1
			c-1.2,0-2.5,0.6-3.8,1.9c0.2,0.9,0.3,1.6,0.3,2.1v13.6h-6.1V18.8c0-1.3-0.3-2.3-0.9-3C209.6,15.1,208.9,14.8,208,14.8z"/>
	</g>
	<path class="st0" d="M19.7,20.4c0-1.1,0-2.3-0.1-3.5c-0.1-2.3,1.4-4.3,3.7-4.8l2.5-0.6v14.6c0,3.4-2.7,6.1-6.1,6.1L19.7,20.4
		L19.7,20.4z"/>
	<path class="st0" d="M53.3,18c0.5-1.4,1.3-2.6,2.4-3.6s2.3-1.7,3.7-2.3c1.5-0.5,3.1-0.8,4.8-0.8c1.6,0,3.1,0.2,4.4,0.7
		c1.3,0.5,2.4,1.1,3.3,2c0.9,0.9,1.5,1.9,2,3.1c0.4,1.2,0.7,2.6,0.7,4c0,1.6-0.3,3.1-0.8,4.5c-0.5,1.4-1.3,2.6-2.3,3.6
		c-1,1-2.2,1.8-3.7,2.4c-1.5,0.6-3.2,0.8-5,0.8c-1.7,0-3.2-0.2-4.5-0.7c-1.3-0.5-2.4-1.1-3.2-2c-0.9-0.9-1.5-1.9-1.9-3.1
		c-0.4-1.2-0.6-2.5-0.6-4C52.5,21,52.8,19.4,53.3,18 M59.7,26.5c0.3,1.7,0.8,3,1.5,3.9c0.7,0.9,1.5,1.3,2.4,1.3s1.6-0.4,2.2-1.2
		c0.6-0.8,1.1-1.9,1.4-3.2c0.3-1.4,0.5-2.8,0.5-4.4c0-2.4-0.2-4.3-0.6-5.9c-0.4-1.6-0.9-2.8-1.5-3.6c-0.6-0.8-1.4-1.2-2.3-1.2
		c-0.9,0-1.6,0.4-2.2,1.2c-0.6,0.8-1.1,1.9-1.4,3.3c-0.3,1.4-0.5,2.9-0.5,4.4C59.2,23,59.4,24.8,59.7,26.5"/>
	<path class="st0" d="M85,11.6L85,18.3c1-2.5,1.9-4.3,2.8-5.2c0.9-1,1.9-1.4,3-1.4c0.9,0,1.6,0.1,2.1,0.4v5.1
		c-1.8-1.6-6.6-0.7-7.9,2.3v6.7c0,3.4-2.7,6.1-6.1,6.1V20.3c0-1.2,0-2.4-0.1-3.4c-0.1-2.3,1.4-4.3,3.6-4.8L85,11.6z"/>
	<path class="st0" d="M119.2,32.5h-7.8l-6.7-10.7c1.9-1.6,3.2-2.9,3.8-3.9c1.6-2.1,2.5-4.4,2.7-6.8h6.8c-3.3,5.1-6.2,8-7.8,8.6
		C110.8,20.3,115.8,27.6,119.2,32.5"/>
	<path class="st0" d="M97.4,32.5L97.4,32.5c3.6,0,6.5-2.9,6.5-6.5V0l-2.7,0.6c-2.3,0.5-3.9,2.7-3.9,5c0.1,1.6,0.1,3.2,0.1,4.7
		L97.4,32.5L97.4,32.5z"/>
	<path class="st0" d="M141.1,29.3c-0.1,0.1-0.3,0.1-0.5,0.2c-0.2,0.1-0.4,0.1-0.5,0.1c-0.9,0-1.3-0.7-1.3-2v-9.9
		c0-1.4-0.3-2.6-1-3.6c-0.7-1-1.6-1.7-2.8-2.1c-1.2-0.4-2.5-0.6-3.9-0.6c-1.5,0-3.1,0.2-4.7,0.6c-1.7,0.4-3.2,0.9-4.6,1.5l0,5.6h0.6
		c0.4-1.3,3.1-7,7.6-7c0.7,0,1.4,0.4,1.9,1.2c0.5,0.8,0.8,1.8,0.8,3v4c-3.1,0.5-5.5,1.2-7.2,1.9s-2.8,1.5-3.5,2.4
		c-0.7,0.9-1,1.8-1,2.9c0,1,0.3,1.9,0.9,2.7c0.6,0.8,1.3,1.4,2.1,1.7c0.8,0.3,1.5,0.5,2.2,0.5c1,0,2-0.3,3.1-0.8
		c1.1-0.5,2.2-1.5,3.5-2.8c0.1,1.1,0.5,2,1.2,2.7c0.6,0.7,1.5,1,2.6,1c1,0,1.9-0.3,2.8-0.8c0.9-0.5,1.5-1.2,2.1-1.9L141.1,29.3z
		 M132.8,28c-0.4,0.5-0.9,0.8-1.5,1.1c-0.6,0.3-1.1,0.4-1.5,0.4c-0.7,0-1.3-0.3-1.8-1c-0.5-0.7-0.7-1.5-0.7-2.7
		c0-1.4,0.5-2.5,1.4-3.2c0.9-0.7,2.3-1.3,4.2-1.5L132.8,28L132.8,28z"/>
	<path class="st0" d="M48.7,19.5c0-2.3,0.1-5,0.3-8.2l-3.4,1c-1.9-0.6-3.6-0.9-5.3-0.9c-1.5,0-2.9,0.3-4.3,0.9
		c-1.3,0.6-2.5,1.4-3.5,2.4c-1,1.1-1.7,2.3-2.3,3.7c-0.5,1.5-0.8,3-0.8,4.7c0,1.4,0.2,2.7,0.6,3.9c0.4,1.2,0.9,2.2,1.6,3
		c0.7,0.8,1.4,1.4,2.3,1.8c0.9,0.4,1.7,0.6,2.6,0.6c2.1,0,4.2-1.1,6.5-3.4l-0.2,6.2c0.8-0.2,4.4-1.8,5.8-4c0-0.8,0-3.9,0-4.7
		L48.7,19.5L48.7,19.5z M43,28.2c-0.4,0.4-0.8,0.7-1.4,0.9s-1.1,0.4-1.7,0.4c-1.4,0-2.5-0.7-3.3-2.1c-0.8-1.4-1.1-3.4-1.1-5.9
		c0-1.6,0.2-3.2,0.6-4.6c0.4-1.5,0.9-2.6,1.6-3.5c0.7-0.9,1.4-1.3,2.3-1.3c0.6,0,1.2,0.2,1.7,0.6c0.6,0.4,1,0.9,1.4,1.5L43,28.2
		L43,28.2z"/>
	<path class="st0" d="M32.6,44.4c0,0,3-0.9,5.6-1.9c3.6-1.4,3.6-3.8,4.3-6.9c-3.8,1.7-5.2,2.1-6.2,2.5
		C32.1,39.5,32.6,44.4,32.6,44.4"/>
	<path class="st1" d="M19.7,11.2c0,0,3.2-1,5.9-2c3.8-1.5,3.8-4.1,4.6-7.3c-4,1.8-5.5,2.3-6.5,2.6C19.2,6,19.7,11.2,19.7,11.2"/>
	<path class="st0" d="M7,32.7c-1.4,0-2.6-0.2-3.7-0.5c-1.1-0.3-2.1-0.7-3-1.2l0-5h0.4l1.4,2.5c0.6,1.1,1.3,2,2,2.5s1.7,0.8,2.9,0.8
		c1.4,0,2.4-0.3,3.3-0.9s1.2-1.4,1.2-2.4c0-0.9-0.3-1.7-0.9-2.3c-0.6-0.6-1.7-1.1-3.3-1.6l-1.8-0.5c-1.7-0.5-3.1-1.3-4.1-2.4
		s-1.5-2.4-1.5-3.9c0-1.9,0.7-3.4,2.2-4.7c1.5-1.3,3.6-1.9,6.3-1.9c1.1,0,2.1,0.1,3.1,0.4c1,0.2,1.9,0.6,2.8,1.1l-0.3,4.6h-0.4
		l-1.5-2.6c-0.5-0.9-1.1-1.6-1.6-2C10.2,12.2,9.4,12,8.4,12c-1,0-1.9,0.3-2.7,0.8c-0.8,0.5-1.3,1.3-1.3,2.3c0,1,0.4,1.7,1.1,2.3
		c0.7,0.6,1.8,1.1,3.2,1.6l1.9,0.5c2,0.6,3.5,1.5,4.3,2.6c0.9,1.1,1.3,2.4,1.3,3.9c0,2.1-0.8,3.7-2.4,4.9C12.2,32.1,9.9,32.7,7,32.7
		"/>
</g>
</svg>
