<svg width="50" height="45" viewBox="0 0 50 45" fill="none" xmlns="http://www.w3.org/2000/svg">
<g clip-path="url(#clip0_520_265)">
<path d="M48.9624 11.4073L39.6883 1.6132C38.7177 0.586594 37.3525 -3.80762e-05 35.9419 -3.80762e-05H30.9582C30.7102 -3.80762e-05 30.5102 0.210616 30.5289 0.458601C30.5289 0.463934 30.5289 0.466601 30.5289 0.471934L30.5875 1.05323L30.9982 5.10366L27.2624 10.2047C27.1637 10.338 27.1477 10.514 27.2144 10.6607L29.8382 16.3163L29.2649 17.0976L28.4543 18.2042L25.1852 22.652L26.5024 18.2042L26.8304 17.0976L27.1131 16.1377C27.1557 15.999 27.1264 15.8497 27.0384 15.735L24.4519 12.3619L26.0411 5.46631C26.0545 5.40231 26.0571 5.33298 26.0411 5.26632L25.0918 0.983904L24.9452 0.330609C24.9025 0.133287 24.7292 -0.00537109 24.5265 -0.00537109H13.7085C12.2979 -0.00537109 10.93 0.581261 9.96208 1.60787L0.695959 11.4073C0.247985 11.8819 0 12.5032 0 13.1539V15.663C0 17.0096 1.05594 18.1189 2.38653 18.1989H14.7751C14.7965 18.2015 14.8231 18.2042 14.8445 18.2042H18.3162C18.7216 18.2522 19.0362 18.5935 19.0362 19.0122C19.0362 19.4601 18.6736 19.8255 18.2229 19.8255H3.41046V44.4453C3.41046 44.752 3.65845 44.9973 3.96243 44.9973H45.696C46.0026 44.9973 46.2479 44.7493 46.2479 44.4453V18.2042H47.1145C48.5171 18.2042 49.6557 17.0656 49.6557 15.663V13.1565C49.6557 12.8312 49.5944 12.5139 49.4744 12.2179C49.3571 11.9219 49.1838 11.6473 48.9598 11.41L48.9624 11.4073ZM35.4352 40.1656H42.0615C42.5095 40.1656 42.8748 40.5282 42.8748 40.9789C42.8748 41.4295 42.5095 41.7922 42.0615 41.7922H35.4352C34.9873 41.7922 34.6219 41.4268 34.6219 40.9789C34.6219 40.5309 34.9873 40.1656 35.4352 40.1656ZM32.3634 33.3073C31.9154 33.3073 31.5501 32.9447 31.5501 32.494C31.5501 32.0434 31.9154 31.6808 32.3634 31.6808H36.3018V21.9347C36.3018 21.484 36.6645 21.1214 37.1151 21.1214C37.5658 21.1214 37.9284 21.484 37.9284 21.9347V32.494C37.9284 32.9447 37.5631 33.3073 37.1151 33.3073H32.3634ZM19.6415 43.8934H12.6366V31.2941C12.6366 30.5902 13.2099 30.0169 13.9165 30.0169H18.3642C19.0709 30.0169 19.6442 30.5902 19.6442 31.2941V43.8934H19.6415Z" fill="#D9AE5F"/>
</g>
<defs>
<clipPath id="clip0_520_265">
<rect width="49.6584" height="45" fill="white"/>
</clipPath>
</defs>
</svg>
