<svg width="51" height="45" viewBox="0 0 51 45" fill="none" xmlns="http://www.w3.org/2000/svg">
<g clip-path="url(#clip0_520_275)">
<path d="M38.0388 11.5108C39.2092 12.95 40.7925 13.446 41.7552 12.9133C41.9238 12.8205 42.2487 12.5981 42.5053 12.0752C42.5053 12.0752 42.5053 12.0704 42.5077 12.0679C42.5419 12.0166 42.5664 11.9604 42.5835 11.8993C42.5835 11.8944 42.5884 11.892 42.5884 11.8871C42.5981 11.8456 42.6055 11.8016 42.6055 11.7576V10.338C42.6055 9.44859 41.8822 8.7229 40.9904 8.7229H38.0412C36.927 8.7229 35.8813 9.15538 35.0945 9.9446L32.3237 12.7154H10.2794L7.50855 9.9446C6.72178 9.15782 5.67356 8.7229 4.56182 8.7229H1.61508C0.725688 8.7229 0 9.44615 0 10.338V11.7576C0 12.063 0.246783 12.3098 0.552207 12.3098L3.01515 13.9127L1.91318 15.5009C1.00668 16.8056 0.527773 18.3352 0.527773 19.9283V26.9897C0.527773 28.1112 1.43916 29.0226 2.56068 29.0226H23.8451V28.3116V19.8184H14.978V23.8475C14.978 24.3557 14.5651 24.7662 14.0593 24.7662C13.5535 24.7662 13.1406 24.3557 13.1406 23.8475V18.8996C13.1406 18.3914 13.5535 17.9809 14.0593 17.9809H23.8451V16.3121C23.8451 16.3121 33.6138 18.5063 38.0388 11.5157V11.5108ZM10.1523 19.8135H5.49275C4.98453 19.8135 4.57403 19.4005 4.57403 18.8948C4.57403 18.389 4.98453 17.976 5.49275 17.976H10.1523C10.6605 17.976 11.071 18.389 11.071 18.8948C11.071 19.4005 10.6605 19.8135 10.1523 19.8135Z" fill="#D9AE5F"/>
<path d="M50.1238 18.3426C44.7532 18.3426 40.6971 16.8961 38.696 14.267C38.5934 14.1302 38.4297 14.0496 38.2586 14.0496C38.0876 14.0496 37.9239 14.1302 37.8188 14.267C35.8201 16.8961 31.7617 18.3426 26.3911 18.3426C26.0881 18.3426 25.8389 18.5918 25.8389 18.8948V32.7782C25.8389 35.3951 27.1436 37.814 29.3305 39.2483L37.9557 44.9096C38.0485 44.9707 38.1536 45.0025 38.2586 45.0025C38.3637 45.0025 38.4688 44.9707 38.5592 44.9096L47.1844 39.2483C49.3712 37.8116 50.676 35.3951 50.676 32.7782V18.8948C50.676 18.5918 50.4292 18.3426 50.1238 18.3426ZM38.5494 35.2485C38.3662 35.4928 38.0852 35.6418 37.7797 35.6541C37.7675 35.6541 37.7529 35.6541 37.7406 35.6541C37.4499 35.6541 37.1713 35.527 36.9783 35.3095L31.4245 28.9616C31.0555 28.5413 31.0995 27.9036 31.5198 27.5347C31.94 27.1657 32.5777 27.2097 32.9467 27.6299L37.6771 33.0372L44.7874 23.547C45.1221 23.0999 45.7574 23.0095 46.2021 23.3442C46.6493 23.679 46.7397 24.3143 46.4049 24.759L38.5445 35.246L38.5494 35.2485Z" fill="#D9AE5F"/>
<path d="M12.0238 30.3225V30.3176H3.80419C3.80419 30.3176 3.80419 30.3201 3.80419 30.3225C3.14448 30.3225 2.60938 30.8576 2.60938 31.5173V33.02C2.60938 34.9601 4.37351 36.5361 6.5408 36.5361H9.28717C11.4545 36.5361 13.2186 34.9576 13.2186 33.02V31.5173C13.2186 30.8576 12.6835 30.3225 12.0238 30.3225Z" fill="#D9AE5F"/>
<path d="M8.21735 9.18472C8.37129 9.25069 8.53255 9.28246 8.69137 9.28246C9.15317 9.28246 9.59543 9.01124 9.78846 8.56166L11.4695 4.66688C12.0657 3.28392 13.4267 2.38964 14.9318 2.38964H28.5684C30.0466 2.38964 31.3954 3.25949 32.0038 4.6058L33.6335 8.20736C33.9048 8.80844 34.6133 9.07477 35.2144 8.80355C35.8155 8.53233 36.0818 7.82375 35.8106 7.22267L34.1809 3.62111C33.184 1.42206 30.9825 0 28.5659 0H14.9294C12.4689 0 10.2478 1.46115 9.27046 3.72129L7.5894 7.61606C7.32796 8.22202 7.60651 8.92572 8.21247 9.18716L8.21735 9.18472Z" fill="#D9AE5F"/>
</g>
<defs>
<clipPath id="clip0_520_275">
<rect width="50.676" height="45" fill="white"/>
</clipPath>
</defs>
</svg>
