<svg width="46" height="54" viewBox="0 0 46 54" fill="none" xmlns="http://www.w3.org/2000/svg">
<g clip-path="url(#clip0_520_260)">
<path d="M8.55321 50.0422C8.25224 49.8528 1.18913 45.3536 3.11389 36.314C3.56049 34.9324 3.74496 32.9244 3.59204 31.0645C3.51923 30.1661 3.37602 29.3503 3.16729 28.6243C3.2401 28.6534 3.31049 28.685 3.3833 28.7166C4.98767 29.3988 6.50224 30.0423 7.33476 30.8581C7.5969 31.1155 7.95127 31.2199 8.28136 31.1349C8.75709 31.0135 9.06049 30.574 9.00952 30.0884C8.84932 28.5927 8.24738 27.114 7.61146 25.5431C6.59204 23.0349 5.4367 20.1941 6.06534 16.8288C6.25224 15.8284 7.15515 14.3497 8.11631 12.7812C9.11631 11.1496 10.143 9.46935 10.5775 7.94453C10.6673 8.02951 10.7571 8.11692 10.8469 8.20433C13.2522 10.5207 15.7377 12.9196 15.7377 15.5176C15.7377 15.7799 15.8396 16.0227 16.0265 16.2072C16.2085 16.3893 16.4537 16.4889 16.7158 16.4889H16.7255C17.0678 16.4889 17.393 16.2922 17.5678 15.979C19.9416 11.7711 22.0338 7.33023 21.5872 3.18068C28.2207 7.95181 31.4149 13.6068 31.0775 20.0023C31.0508 20.5389 31.4634 20.9953 32.0047 21.0245C32.5484 21.0439 32.9925 20.6433 33.0192 20.1042C33.4294 12.3199 29.2377 5.60874 20.5629 0.15289C20.1479 -0.10934 19.5993 -0.0170741 19.2886 0.364131C19.0678 0.636073 19.0144 1.01971 19.1527 1.36692C20.5726 4.89974 19.0047 9.059 17.0823 12.7885C16.1163 10.5814 14.126 8.66323 12.194 6.80334C11.5751 6.20847 10.9343 5.58931 10.3639 4.99201C10.0581 4.67393 9.58233 4.5841 9.20369 4.77591C8.7401 5.01143 8.5435 5.56989 8.75709 6.04336C9.2668 7.17726 7.70855 9.72187 6.45612 11.7711C5.4003 13.4926 4.40515 15.1194 4.15515 16.4719C3.42457 20.398 4.69156 23.5205 5.81292 26.2764C6.05078 26.8615 6.28136 27.4273 6.48039 27.976C5.75709 27.6094 4.96583 27.2743 4.14301 26.9247C3.25224 26.5459 2.32991 26.1525 1.44398 25.7033C1.04107 25.4994 0.555635 25.5771 0.264372 25.8927C-0.0948509 26.2812 -0.0827149 26.8785 0.293499 27.2476C1.92457 28.8525 1.99981 33.5144 1.25466 35.7531L1.22554 35.8526C-1.03174 46.303 7.44884 51.6423 7.53379 51.6957C7.6867 51.788 7.86146 51.839 8.0435 51.839C8.38088 51.839 8.69156 51.6666 8.86874 51.3776C9.1503 50.9236 9.00952 50.3238 8.55564 50.0422H8.55321Z" fill="#D9AE5F"/>
<path d="M12.5463 27.6969C12.5051 27.539 12.4614 27.3715 12.4177 27.1991L12.4128 27.1797C11.9541 25.4533 11.2696 22.8796 12.7211 18.9219C14.5706 20.2549 17.0099 21.4082 18.2987 21.5199C18.5002 21.5393 18.6992 21.4932 18.8764 21.3912C21.7939 19.6819 24.4541 15.6998 24.6822 12.6988C24.7017 12.439 24.6191 12.1864 24.4517 11.9898C24.2817 11.7931 24.0463 11.6741 23.7915 11.6547C23.5317 11.6328 23.2818 11.7154 23.0851 11.8854C22.8861 12.0553 22.7648 12.2908 22.7453 12.5506C22.5706 14.8257 20.4589 18.0429 18.1847 19.5337C17.0487 19.2618 14.5487 18.0478 12.9614 16.6274C12.7308 16.421 12.4128 16.336 12.1094 16.4015C11.806 16.4647 11.5512 16.6735 11.425 16.9576C9.08515 22.2216 9.95893 25.5068 10.5366 27.6823L10.5415 27.7017C10.5876 27.8741 10.6313 28.0368 10.6701 28.1946C10.7769 28.6292 11.1652 28.9303 11.6118 28.9303C11.7332 28.9303 11.857 28.906 11.9735 28.8599C12.4225 28.6827 12.6701 28.1849 12.5487 27.6993L12.5463 27.6969Z" fill="#D9AE5F"/>
<path d="M8.16011 35.9596C8.21351 35.7046 8.16497 35.4472 8.02176 35.2287C7.87856 35.0102 7.66254 34.8621 7.41254 34.8111C7.15768 34.7552 6.9004 34.8038 6.67953 34.9446C6.46108 35.0879 6.3106 35.3064 6.2572 35.5614C5.02904 41.4445 8.54846 45.934 8.69895 46.1234C8.88584 46.3565 9.16011 46.4901 9.45866 46.4901C9.6771 46.4901 9.89312 46.4148 10.0655 46.2788C10.4829 45.9437 10.5509 45.3319 10.2208 44.9167C10.1892 44.8754 7.12613 40.9031 8.16011 35.962V35.9596Z" fill="#D9AE5F"/>
<path d="M45.4828 31.1277L39.2571 24.5477C38.5726 23.8217 37.6066 23.4065 36.609 23.4065H21.6842C20.6842 23.4065 19.7206 23.8217 19.0362 24.5477L12.8104 31.1277C12.4755 31.4798 12.2935 31.9435 12.2935 32.4243V34.1118C12.2935 35.1559 13.1381 36.0008 14.1818 36.0008H14.5823V53.444C14.5823 53.7499 14.8299 53.9976 15.1357 53.9976H43.1575C43.4634 53.9976 43.7109 53.7475 43.7109 53.444V36.0008H44.1114C45.1551 36.0008 45.9998 35.1559 45.9998 34.1118V32.4243C45.9998 32.1839 45.9537 31.9484 45.8638 31.7274C45.7765 31.5016 45.6454 31.3025 45.4828 31.1277ZM33.7182 45.2833C33.7692 45.0211 34.0168 44.8414 34.2837 44.8414H36.8784V38.3973C36.8784 38.0841 37.143 37.8267 37.4634 37.8437C37.7619 37.8583 37.9876 38.1278 37.9876 38.4289V45.3974C37.9876 45.7033 37.7401 45.951 37.4342 45.951H34.2619C33.9221 45.951 33.6527 45.6402 33.7182 45.2857V45.2833ZM40.6721 51.6691H36.3954C36.126 51.6691 35.8808 51.487 35.8299 51.2248C35.7619 50.8727 36.0337 50.5619 36.3736 50.5619H40.6527C40.9221 50.5619 41.1672 50.7416 41.2182 51.0038C41.2862 51.3583 41.0143 51.6691 40.6745 51.6691H40.6721ZM40.3153 36.0858H18.007C17.893 36.0858 17.7837 36.0567 17.6915 36.0008C17.6357 35.9693 17.5823 35.928 17.5386 35.8794C17.4318 35.7653 17.3687 35.6123 17.3687 35.4472C17.3687 35.2214 17.4828 35.0223 17.66 34.9106C17.6697 34.9058 17.6794 34.8985 17.6867 34.8936C17.7789 34.8378 17.8905 34.8087 18.007 34.8087H40.3153C40.4318 34.8087 40.541 34.8402 40.6357 34.8936C40.8274 35.0053 40.9561 35.2117 40.9561 35.4472C40.9561 35.6123 40.893 35.7677 40.7837 35.8794C40.7401 35.928 40.6891 35.9693 40.6333 36.0008C40.541 36.0542 40.4318 36.0858 40.3177 36.0858H40.3153ZM25.4828 52.8904H21.1454V44.7637C21.1454 44.3072 21.5192 43.9357 21.9755 43.9357H24.6575C25.1138 43.9357 25.4852 44.3072 25.4852 44.7637V52.8904H25.4828Z" fill="#D9AE5F"/>
</g>
<defs>
<clipPath id="clip0_520_260">
<rect width="46" height="54" fill="white"/>
</clipPath>
</defs>
</svg>
