<svg width="69" height="45" viewBox="0 0 69 45" fill="none" xmlns="http://www.w3.org/2000/svg">
<g clip-path="url(#clip0_520_268)">
<path d="M14.8114 37.3445V37.3385H4.68831C4.68831 37.3385 4.68831 37.3415 4.68831 37.3445C3.87582 37.3445 3.2168 38.0035 3.2168 38.816V40.6667C3.2168 43.056 5.38946 44.997 8.05864 44.997H11.441C14.1102 44.997 16.2829 43.053 16.2829 40.6667V38.816C16.2829 38.0035 15.6238 37.3445 14.8114 37.3445Z" fill="#D9AE5F"/>
<path d="M10.1199 11.3117C10.3095 11.3929 10.5081 11.4321 10.7037 11.4321C11.2724 11.4321 11.8171 11.098 12.0548 10.5443L14.1252 5.74763C14.8594 4.0444 16.5356 2.94303 18.3892 2.94303H35.1837C37.0043 2.94303 38.6654 4.01431 39.4147 5.6724L41.4219 10.108C41.7559 10.8483 42.6286 11.1763 43.3688 10.8422C44.1091 10.5082 44.4371 9.63555 44.1031 8.89528L42.0959 4.45968C40.8682 1.75137 38.1569 0 35.1807 0H18.3862C15.3559 0 12.6206 1.79952 11.4169 4.58305L9.34651 9.37976C9.02453 10.1261 9.36758 10.9927 10.1139 11.3147L10.1199 11.3117Z" fill="#D9AE5F"/>
<path d="M59.7575 34.5761L51.8703 34.8379L53.9617 27.8294L54.5966 25.6988C54.8073 24.9947 54.5304 24.2424 53.9256 23.8632C53.3478 23.5021 52.6226 23.5713 52.12 24.0347L47.9222 27.8835L46.252 29.4152L46.0504 27.9076L45.0484 20.3424C45.0423 20.3003 45.0333 20.2551 45.0213 20.216C44.8467 19.5028 44.2479 19.0214 43.5377 19.0214C42.8275 19.0214 42.2708 19.4727 42.0722 20.1468L41.335 22.3014L38.7831 29.7372L35.139 26.397L32.5631 24.0317C32.1117 23.6165 31.4828 23.5171 30.9441 23.7579C30.8809 23.788 30.8147 23.8211 30.7545 23.8572C30.2309 24.1882 29.9511 24.7991 30.0263 25.413C30.0383 25.5062 30.0564 25.5995 30.0835 25.6928L32.8128 34.8288L24.9256 34.567C24.2666 34.546 23.6858 34.9402 23.4481 35.5781C23.3819 35.7527 23.3488 35.9362 23.3458 36.1138C23.3277 36.6073 23.5384 37.0858 23.9296 37.4077L31.8408 43.8686C32.3675 44.2959 33.1378 44.2146 33.5651 43.694C33.7728 43.4412 33.8661 43.1223 33.836 42.7973C33.8029 42.4723 33.6434 42.1804 33.3906 41.9727L27.4233 37.1038L34.4318 37.3355C34.832 37.3506 35.1991 37.176 35.4429 36.8601C35.6836 36.5471 35.7619 36.1379 35.6475 35.7617L33.3545 28.0761L38.5093 32.8066C38.8162 33.0865 39.2375 33.1948 39.6408 33.0895C40.044 32.9872 40.363 32.6923 40.4984 32.3011L42.993 25.0338C43.0743 25.1361 43.1556 25.2384 43.2458 25.3407L44.1366 32.0603C44.1967 32.5147 44.5007 32.8969 44.931 33.0504C45.3613 33.2069 45.8398 33.1136 46.1798 32.8036L51.3376 28.0731L49.0416 35.7587C48.9303 36.1348 49.0055 36.5441 49.2462 36.8571C49.487 37.17 49.8631 37.3476 50.2573 37.3325L57.2658 37.1008L51.2985 41.9697C51.0457 42.1774 50.8893 42.4693 50.8532 42.7943C50.8231 43.1223 50.9163 43.4413 51.124 43.691C51.3587 43.9769 51.7048 44.1424 52.0749 44.1424C52.3548 44.1424 52.6316 44.0461 52.8483 43.8656L60.7595 37.4047C61.2922 36.9714 61.4878 36.2341 61.238 35.5751C61.0003 34.9372 60.4105 34.546 59.7635 34.564L59.7575 34.5761Z" fill="#D9AE5F"/>
<path d="M68.5051 12.8013C68.5051 12.0821 67.9213 11.4983 67.2021 11.4983H65.1047C64.2711 11.4983 63.4887 11.8233 62.8989 12.4131L60.973 14.339H60.9038C57.0941 14.318 54.3557 14.3059 52.4719 14.3029V12.7291C52.4719 11.6337 51.5812 10.74 50.4858 10.74H46.8537C45.4815 10.74 44.1935 11.2756 43.2246 12.2446L39.8121 15.6601H12.6628L9.25037 12.2446C8.2814 11.2756 6.99044 10.74 5.61823 10.74H1.9891C0.893741 10.74 0 11.6337 0 12.7291V14.4775C0 14.8536 0.303932 15.1575 0.680086 15.1575L3.71038 17.1316L2.35322 19.0876C1.23679 20.6945 0.646984 22.5813 0.646984 24.5403V33.237C0.646984 34.6182 1.77244 35.7407 3.15367 35.7407H20.3123C20.3183 35.3043 20.3965 34.865 20.556 34.4377C21.1097 32.9662 22.4699 32.0122 24.0197 32.0122C24.0678 32.0122 24.1129 32.0122 24.146 32.0152L29.4934 32.1898L27.4682 25.416C27.3689 25.079 27.3178 24.7389 27.3118 24.4019H18.4466V29.3641C18.4466 29.993 17.938 30.4986 17.3151 30.4986C16.6922 30.4986 16.1806 29.993 16.1806 29.3641V23.2704C16.1806 22.6445 16.6892 22.1389 17.3151 22.1389H27.9918C28.2717 21.7297 28.6388 21.3746 29.0752 21.1008C29.659 20.7336 30.333 20.541 31.0221 20.541C31.943 20.541 32.8277 20.8841 33.5108 21.513L37.6635 25.3197L40.0558 18.3443C40.2544 17.7003 40.6035 17.1466 41.0609 16.7163C41.3709 16.4184 41.729 16.1807 42.1232 16.0092C42.5746 15.8135 43.0741 15.7052 43.5977 15.7052H43.6007C45.3039 15.7052 46.7845 16.8788 47.1967 18.5519C47.2268 18.6723 47.2509 18.7987 47.269 18.9251L47.9972 24.423L51.1689 21.513C51.855 20.8841 52.7367 20.538 53.6606 20.538C54.3467 20.538 55.0207 20.7336 55.6045 21.1008C57.0429 21.9975 57.702 23.773 57.2114 25.416C56.9316 26.2827 56.6547 27.1493 56.3749 28.016C59.7603 28.034 63.1456 28.0491 66.531 28.0671C67.4127 28.0671 68.1319 27.3479 68.1319 26.4662V19.6232C68.1319 18.4587 67.7829 17.3422 67.1178 16.3883L66.209 15.0763C66.1699 15.0191 66.1188 14.974 66.0646 14.9349C67.2081 15.0312 68.153 14.7603 68.4238 14.1615C68.4539 14.0923 68.475 14.014 68.487 13.9298C68.487 13.9207 68.49 13.9087 68.493 13.8997C68.493 13.8816 68.4991 13.8666 68.5021 13.8455C68.5021 13.8455 68.5021 13.8425 68.5021 13.8395C68.5021 13.8305 68.5021 13.8214 68.5021 13.8094V12.7983L68.5051 12.8013ZM12.5033 24.4019H6.76475C6.13883 24.4019 5.63328 23.8963 5.63328 23.2704C5.63328 22.6445 6.13883 22.1389 6.76475 22.1389H12.5033C13.1323 22.1389 13.6348 22.6445 13.6348 23.2704C13.6348 23.8963 13.1323 24.4019 12.5033 24.4019ZM61.6681 18.4226H65.2641C65.6192 18.4226 65.9051 18.7084 65.9051 19.0605C65.9051 19.4126 65.6192 19.7015 65.2641 19.7015H61.6681C61.316 19.7015 61.0302 19.4156 61.0302 19.0605C61.0302 18.7054 61.316 18.4226 61.6681 18.4226ZM57.7441 21.0255V18.3894H49.7606C49.4597 18.3894 49.2129 18.1427 49.2129 17.8418C49.2129 17.5408 49.4597 17.2971 49.7606 17.2971H58.2918C58.5927 17.2971 58.8364 17.5408 58.8364 17.8418V21.0255C58.8364 21.3295 58.5927 21.5732 58.2918 21.5732C57.9908 21.5732 57.7441 21.3295 57.7441 21.0255Z" fill="#D9AE5F"/>
<path d="M46.3961 7.02053H57.9305C58.442 7.02053 58.9025 7.32446 59.1041 7.7939L60.3168 10.6256C60.4974 11.0499 60.9126 11.3237 61.373 11.3237C61.5295 11.3237 61.68 11.2936 61.8244 11.2304C62.4052 10.9807 62.676 10.3066 62.4263 9.72282L61.2135 6.89113C60.6508 5.57309 59.3599 4.72449 57.9275 4.72449H46.3931C45.7612 4.72449 45.2466 5.23907 45.2466 5.871C45.2466 6.50294 45.7612 7.01752 46.3931 7.01752L46.3961 7.02053Z" fill="#D9AE5F"/>
<path d="M65.2702 28.9368H60.0462C59.7844 28.9368 59.5737 29.1474 59.5737 29.4092V31.1275C59.5737 31.4796 59.7182 31.8016 59.9559 32.0333C60.1846 32.2559 60.4946 32.3974 60.8436 32.3974H64.4758C65.1739 32.3974 65.7457 31.8256 65.7457 31.1275V29.4092C65.7457 29.1474 65.532 28.9368 65.2702 28.9368Z" fill="#D9AE5F"/>
</g>
<defs>
<clipPath id="clip0_520_268">
<rect width="68.5051" height="45" fill="white"/>
</clipPath>
</defs>
</svg>
