<svg width="46" height="45" viewBox="0 0 46 45" fill="none" xmlns="http://www.w3.org/2000/svg">
<g clip-path="url(#clip0_502_1329)">
<path d="M35.4584 10.0747C36.9044 6.32175 35.1423 2.04042 31.5309 0.53075C29.8419 -0.17455 27.9761 -0.176909 26.2753 0.523673C24.6454 1.19595 23.315 2.45558 22.579 4.01007C21.843 2.45558 20.5103 1.19595 18.8803 0.523673C17.1796 -0.176909 15.3137 -0.17455 13.6248 0.53075C10.0133 2.04042 8.25363 6.32175 9.69725 10.0747C10.8908 13.1742 19.1799 21.4609 21.6897 23.9259C21.935 24.1665 22.2558 24.2868 22.5766 24.2868C22.8974 24.2868 23.2182 24.1665 23.4636 23.9259C25.9758 21.4609 34.2624 13.1742 35.456 10.0747H35.4584ZM22.4469 13.5847C22.3455 13.797 22.1426 13.9338 21.9114 13.9409H21.8831C21.6638 13.9409 21.4609 13.8229 21.3477 13.6342L20.3334 11.8745L20.0008 12.3557C19.8852 12.5232 19.6965 12.6223 19.4936 12.6223H16.4247C16.085 12.6223 15.8067 12.3463 15.8067 12.0043C15.8067 11.6622 16.0827 11.3862 16.4247 11.3862H19.1681L19.8757 10.3648C19.9937 10.195 20.1989 10.0936 20.4112 10.1007C20.6211 10.1101 20.8146 10.228 20.9207 10.4097L21.8289 11.9854L23.9636 7.39032C24.0745 7.16151 24.3033 7.01998 24.5557 7.03177C24.8081 7.04357 25.0251 7.20869 25.1077 7.44929L26.4994 11.4216H28.6625C29.0045 11.4216 29.2829 11.7 29.2829 12.042C29.2829 12.384 29.0069 12.66 28.6625 12.66H26.0583C25.7988 12.66 25.5653 12.4949 25.478 12.2472L24.4472 9.29156L22.4469 13.5847Z" fill="#D9AE5F"/>
<path d="M9.25853 39.8364C9.25853 40.1289 9.49677 40.3695 9.79163 40.3695H19.0502C19.3427 40.3695 19.5833 40.1289 19.5833 39.8364V32.892C19.5833 32.7504 19.5267 32.616 19.4276 32.5145L11.2258 24.3128C10.688 23.775 9.97327 23.4777 9.21371 23.4777C8.45416 23.4777 7.73942 23.775 7.2016 24.3128L7.17094 24.3434C6.99874 24.5534 6.8289 24.8058 6.69917 25.0936C6.57886 25.3577 6.49159 25.655 6.468 25.9781C6.41846 26.6764 6.67322 27.2425 6.93033 27.7048C6.94213 27.7284 8.29611 30.0755 13.2191 33.4156C13.2497 33.4392 13.2804 33.4581 13.3111 33.4793C13.5163 33.6161 13.5682 33.8921 13.4314 34.095C13.3441 34.2223 13.2049 34.2908 13.061 34.2908C12.9761 34.2908 12.8912 34.2672 12.8133 34.2153C7.60733 30.7006 6.20852 28.2356 6.15191 28.1341C5.86177 27.6057 5.53153 26.8863 5.58107 25.9876L5.6424 22.7111C5.66363 22.671 5.67778 22.6238 5.68957 22.5767C5.69429 22.5507 5.69665 22.5224 5.69665 22.4965C5.69665 22.4799 5.69665 22.4729 5.69665 22.4729V12.0561C5.69665 10.4875 4.41815 9.20898 2.8495 9.20898C1.28086 9.20898 0 10.4875 0 12.0561V25.0959C0 28.0256 1.14169 30.7808 3.21041 32.8519L9.25853 38.8976V39.8341V39.8364Z" fill="#D9AE5F"/>
<path d="M20.206 41.6198H8.63344C8.33902 41.6198 8.10034 41.8584 8.10034 42.1529V44.4669C8.10034 44.7613 8.33902 45 8.63344 45H20.206C20.5004 45 20.7391 44.7613 20.7391 44.4669V42.1529C20.7391 41.8584 20.5004 41.6198 20.206 41.6198Z" fill="#D9AE5F"/>
<path d="M42.601 9.20898C41.0324 9.20898 39.7539 10.4875 39.7539 12.0561V22.4729C39.7539 22.4729 39.7539 22.4799 39.7539 22.4965C39.7539 22.5224 39.7586 22.5507 39.761 22.5767C39.7728 22.6262 39.7869 22.6734 39.8081 22.7158L39.8695 25.9899L39.8647 25.9852C39.9119 26.8863 39.5864 27.6034 39.2915 28.1341C39.2349 28.2379 37.8338 30.7006 32.6301 34.2153C32.5546 34.2672 32.4674 34.2908 32.3824 34.2908C32.2409 34.2908 32.0994 34.2223 32.0145 34.095C31.8753 33.8921 31.9319 33.6161 32.1324 33.4793C32.1654 33.4581 32.1937 33.4368 32.2268 33.4133C37.145 30.0755 38.5013 27.726 38.5155 27.7048C38.7702 27.2425 39.0274 26.6764 38.9755 25.9781C38.9519 25.655 38.8646 25.3577 38.7443 25.0936C38.6122 24.8011 38.44 24.5463 38.2654 24.3364L38.2442 24.3151C37.7064 23.7773 36.9917 23.4801 36.2321 23.4801C35.4726 23.4801 34.7578 23.7773 34.22 24.3151L26.0182 32.5169C25.9192 32.616 25.8625 32.7504 25.8625 32.8943V39.8388C25.8625 40.1313 26.1032 40.3719 26.3957 40.3719H35.6542C35.949 40.3719 36.1873 40.1313 36.1873 39.8388V38.9023L42.2354 32.8566C44.3065 30.7855 45.4458 28.0303 45.4458 25.1006V12.0608C45.4458 10.4922 44.1697 9.2137 42.5987 9.2137L42.601 9.20898Z" fill="#D9AE5F"/>
<path d="M36.8125 41.6198H25.2399C24.9455 41.6198 24.7068 41.8584 24.7068 42.1529V44.4669C24.7068 44.7613 24.9455 45 25.2399 45H36.8125C37.1069 45 37.3456 44.7613 37.3456 44.4669V42.1529C37.3456 41.8584 37.1069 41.6198 36.8125 41.6198Z" fill="#D9AE5F"/>
</g>
<defs>
<clipPath id="clip0_502_1329">
<rect width="45.4505" height="45" fill="white"/>
</clipPath>
</defs>
</svg>
