<svg width="41" height="45" viewBox="0 0 41 45" fill="none" xmlns="http://www.w3.org/2000/svg">
<g clip-path="url(#clip0_502_1301)">
<path d="M25.3871 8.55296C25.99 8.82893 26.6265 8.95914 27.253 8.95914C28.9628 8.95914 30.6112 7.98937 31.39 6.34912C32.4554 4.10446 31.4948 1.44003 29.2514 0.410014C28.1623 -0.0894463 26.9388 -0.134145 25.8042 0.283691C24.6716 0.699584 23.7644 1.52748 23.2505 2.61386C22.7366 3.70023 22.6733 4.91682 23.0746 6.03623C23.4778 7.15953 24.3 8.0535 25.3891 8.55296H25.3871Z" fill="#D9AE5F"/>
<path d="M12.073 34.8146L12.7846 29.3749L17.056 26.1799L16.0736 31.5904C15.9886 31.9344 15.9787 32.2842 16.0439 32.634C16.0736 32.945 16.1546 33.2423 16.2871 33.5183L19.0068 39.2378C19.3132 39.883 19.8568 40.3728 20.5387 40.6157C20.8411 40.7226 21.1534 40.777 21.4657 40.777C21.857 40.777 22.2464 40.6915 22.6121 40.5244C23.2683 40.2231 23.7664 39.6887 24.0135 39.0182C24.2606 38.3477 24.227 37.6248 23.9206 36.9795L21.5448 31.9849L23.5549 23.912L26.1482 18.4023L28.2374 25.7563C28.2414 25.7718 28.2473 25.7835 28.2532 25.799C28.7256 26.9962 30.0341 27.6414 31.2359 27.2644C31.7498 27.1011 32.1985 26.7746 32.4969 26.3393C32.8468 25.8262 33.0049 25.1421 32.9318 24.4658C32.9278 24.4406 32.9239 24.4153 32.916 24.392L30.5006 15.9828C30.0559 14.3134 29.1051 12.9471 27.8243 12.1309C27.8065 12.1212 27.7887 12.1095 27.769 12.1018L21.098 9.04087C21.0803 9.03309 21.0605 9.02532 21.0407 9.01949C19.582 8.57833 17.9059 8.73963 16.3286 9.47425L8.21474 13.0599C8.19102 13.0696 8.16927 13.0832 8.14753 13.0968C7.5684 13.4777 7.1375 14.0374 6.96554 14.6302C6.81927 15.1354 6.8509 15.6835 7.05449 16.1752C7.53282 17.3237 8.87491 17.8971 10.1122 17.4792C10.1261 17.4753 10.1399 17.4695 10.1518 17.4637L17.2279 14.3134L14.1879 20.6684L8.38867 26.1372C8.13172 26.3782 7.93208 26.6697 7.7957 27.0039C7.65141 27.278 7.55851 27.5714 7.517 27.8785L6.69673 34.1383C6.60383 34.8437 6.79555 35.5453 7.23633 36.1089C7.67908 36.6725 8.31752 37.034 9.03699 37.1253C10.5194 37.3119 11.8833 36.2799 12.077 34.8223L12.073 34.8146Z" fill="#D9AE5F"/>
<path d="M37.632 38.6936H37.628C34.1216 38.9638 30.88 40.1396 27.7412 41.2745C21.5802 43.5056 15.7592 45.6142 8.71075 40.5535C8.40834 40.3378 7.98535 40.4019 7.76397 40.6993C7.54457 40.9966 7.6098 41.4144 7.91222 41.6302C11.0688 43.8981 14.2709 44.9981 17.7022 44.9981C21.3845 44.9981 24.8554 43.7407 28.2136 42.5241C31.2635 41.4183 34.4161 40.2756 37.7348 40.021C38.1083 39.9938 38.387 39.6712 38.3574 39.3039C38.3277 38.9366 38.0075 38.6664 37.632 38.6917V38.6936Z" fill="#D9AE5F"/>
<path d="M39.9839 34.8767C36.5249 34.0371 29.767 33.8564 26.561 34.8903C26.2052 35.005 26.0115 35.3839 26.1282 35.7318C26.2211 36.0058 26.48 36.1905 26.7725 36.1905C26.8437 36.1905 26.9148 36.1788 26.986 36.1574C29.9884 35.1896 36.3747 35.3742 39.6598 36.171C39.7151 36.1866 39.7705 36.1924 39.8258 36.1924C39.9484 36.1924 40.067 36.1594 40.1737 36.0952C40.3279 36.0039 40.4386 35.8562 40.482 35.6852C40.4959 35.6308 40.5018 35.5783 40.5018 35.5258C40.5018 35.2265 40.2943 34.9525 39.9879 34.8786L39.9839 34.8767Z" fill="#D9AE5F"/>
<path d="M7.22249 21.9606L5.99702 19.8987C5.90412 19.7451 5.75983 19.6363 5.58391 19.5897C5.408 19.543 5.22615 19.5683 5.07 19.6596C4.74782 19.8462 4.63911 20.2543 4.82689 20.5711L6.05236 22.6331C6.17293 22.8371 6.39826 22.9635 6.6394 22.9635C6.758 22.9635 6.87659 22.9304 6.98135 22.8721C7.30353 22.6855 7.41224 22.2774 7.22447 21.9606H7.22249Z" fill="#D9AE5F"/>
<path d="M4.45699 24.1509L2.34403 23.0179C2.12463 22.8799 1.84198 22.878 1.6206 23.0121C1.30237 23.2064 1.20355 23.6184 1.4012 23.9313C1.46445 24.0285 1.54945 24.1121 1.65223 24.1645L3.80274 25.3209C3.90157 25.3753 4.01621 25.4025 4.12888 25.4025C4.37792 25.4025 4.60721 25.2704 4.72382 25.0546C4.90369 24.732 4.78115 24.3259 4.45501 24.1509H4.45699Z" fill="#D9AE5F"/>
<path d="M3.1664 27.342L0.664056 27.4003C0.553367 27.4042 0.442679 27.4334 0.341874 27.4878C0.183748 27.5752 0.0710834 27.7191 0.0236456 27.8901C-0.0257688 28.0611 -0.00204986 28.2418 0.086896 28.3954C0.20549 28.6033 0.432796 28.7335 0.677892 28.7335C0.693704 28.7335 0.705564 28.7335 0.711493 28.7335L3.19802 28.6772C3.5716 28.6674 3.86808 28.3623 3.86018 27.995C3.85622 27.8143 3.78111 27.6471 3.64671 27.5228C3.51625 27.4023 3.34231 27.3362 3.16442 27.342H3.1664Z" fill="#D9AE5F"/>
</g>
<defs>
<clipPath id="clip0_502_1301">
<rect width="40.5" height="45" fill="white"/>
</clipPath>
</defs>
</svg>
