<svg width="48" height="45" viewBox="0 0 48 45" fill="none" xmlns="http://www.w3.org/2000/svg">
<g clip-path="url(#clip0_502_1335)">
<path d="M8.33867 13.2688C10.3412 13.3706 11.9993 11.7727 11.9993 9.79553C11.9993 7.8184 10.4407 6.31763 8.52135 6.31763C6.60203 6.31763 4.93708 7.98721 5.05039 9.9944C5.14751 11.7472 6.58584 13.1809 8.34098 13.2711L8.33867 13.2688Z" fill="#D9AE5F"/>
<path d="M39.0106 13.2572C41.2075 13.4769 43.0482 11.6362 42.8285 9.43935C42.6666 7.81371 41.3508 6.49794 39.7229 6.33375C37.5261 6.11407 35.6854 7.95477 35.905 10.1516C36.0669 11.7772 37.3827 13.093 39.0106 13.2572Z" fill="#D9AE5F"/>
<path d="M20.5921 22.7659C20.7447 24.1626 21.8685 25.2934 23.2652 25.4529C25.1059 25.6634 26.6738 24.225 26.6738 22.4236C26.6738 20.7402 25.3048 19.3735 23.6237 19.3735C21.8292 19.3735 20.3909 20.9298 20.5921 22.7659Z" fill="#D9AE5F"/>
<path d="M23.1799 16.7999C23.4065 17.0265 23.7164 17.1398 24.0424 17.1121C24.306 17.0889 24.5489 16.9595 24.7338 16.7721L32.3348 9.16886C33.498 8.00802 34.0576 6.40319 33.8726 4.76829C33.6876 3.1334 32.7672 1.6835 31.3428 0.788591C29.6616 -0.265879 27.4047 -0.263567 25.7236 0.797841C24.9767 1.26727 24.3754 1.88006 23.9407 2.60154C23.5083 1.88006 22.9024 1.26958 22.1578 0.797841C20.4767 -0.263567 18.2197 -0.265879 16.5386 0.788591C15.1141 1.6835 14.1938 3.1334 14.0088 4.76829C13.8238 6.40319 14.3857 8.00802 15.5465 9.16886L23.1753 16.7999H23.1799Z" fill="#D9AE5F"/>
<path d="M46.251 43.0854H42.6182C42.972 38.7218 43.3235 34.3605 43.6773 29.997H43.6819C43.6865 29.997 43.6888 29.997 43.6935 29.997C43.7189 29.997 43.7467 29.9923 43.7744 29.9923C43.816 29.9923 43.86 29.9877 43.9039 29.9808C43.9455 29.9762 43.9848 29.9715 44.0265 29.9646C44.1097 29.953 44.193 29.9368 44.2762 29.9183C44.3109 29.9114 44.3456 29.9022 44.3803 29.8929C44.4196 29.8837 44.4543 29.8721 44.4936 29.8605C44.5213 29.8536 44.5491 29.8443 44.5768 29.8351C44.6161 29.8235 44.6531 29.8097 44.6924 29.7935C44.7526 29.7703 44.8127 29.7472 44.8705 29.7195C44.8959 29.7079 44.9237 29.694 44.9514 29.6802C45.0162 29.6501 45.0786 29.6154 45.1411 29.5784C45.1688 29.5622 45.1942 29.546 45.222 29.5299C45.2821 29.4929 45.3399 29.4535 45.3977 29.4119C45.4532 29.3726 45.5064 29.331 45.5619 29.287C45.6429 29.22 45.7192 29.1506 45.7955 29.0766C46.3921 28.48 46.7204 27.6868 46.7204 26.8428V18.3215C46.7204 16.5733 45.4093 15.1534 43.7952 15.1534H34.9432C33.5881 15.1534 32.4088 16.1964 32.1429 17.6231L30.1287 27.3562H26.9815C26.9514 27.3446 26.9214 27.3354 26.889 27.3284C26.8497 27.3215 26.8173 27.3192 26.7896 27.3192C26.1398 27.0532 25.0159 26.6879 23.5799 26.6948C22.1832 26.7017 21.0894 27.0555 20.4466 27.3192C20.3772 27.3192 20.3101 27.333 20.2477 27.3585H16.9802L15.0771 17.6347C14.8088 16.1964 13.6318 15.1558 12.2744 15.1558H4.77055C3.41547 15.1558 2.23613 16.1987 1.9702 17.6324L0.520298 25.1524C0.365365 25.9571 0.575796 26.7804 1.09609 27.4094C1.12847 27.4487 1.16316 27.488 1.19784 27.525C1.23253 27.5643 1.26721 27.599 1.30421 27.6337C1.33659 27.666 1.36896 27.6938 1.40134 27.7238C1.4129 27.7331 1.42215 27.7423 1.43371 27.7516C1.46608 27.7793 1.49846 27.8048 1.53083 27.8302C1.57014 27.8626 1.61177 27.8903 1.65108 27.9181C1.69039 27.9458 1.7297 27.9713 1.76901 27.9967C1.92626 28.0938 2.09507 28.1771 2.27081 28.2395C2.30319 28.2511 2.33787 28.2626 2.37025 28.2719C2.43962 28.295 2.51131 28.3135 2.5853 28.332L1.76439 32.6008C1.73433 32.7534 1.77595 32.913 1.87307 33.0332C1.97251 33.1534 2.1205 33.2228 2.27544 33.2228H4.76824L5.47816 43.0946H0.957348C0.427801 43.0946 0 43.5224 0 44.052C0 44.5815 0.427801 45.0093 0.957348 45.0093H46.251C46.7806 45.0093 47.2084 44.5815 47.2084 44.052C47.2084 43.5224 46.7806 43.0946 46.251 43.0946V43.0854ZM11.3541 43.0854L11.4026 42.1858V42.1534L12.0455 33.2136H14.536C14.6909 33.2136 14.8389 33.1442 14.9383 33.0239C15.0378 32.9037 15.0771 32.7465 15.0493 32.5915L14.3094 28.7529L14.24 28.3944H14.2354L14.0897 27.673L12.6236 20.4304C12.5658 20.1437 12.7531 19.8639 13.0398 19.8061C13.3266 19.7459 13.6064 19.9332 13.6642 20.22L14.1382 22.5648L15.3176 28.3944H15.3129L15.3615 28.6141L15.5072 29.2824C15.5812 29.6894 15.9396 29.9854 16.3535 29.9831C17.5491 29.9762 18.7307 29.9692 19.9031 29.9623L19.9147 30.6329L19.8985 36.2313C19.8985 36.2521 19.9031 36.2729 19.9031 36.296L20.8258 43.083H11.3494L11.3541 43.0854ZM26.3803 43.0854V43.0669L27.3029 36.303C27.3029 36.2775 27.3076 36.2521 27.3076 36.2267V30.6676C27.3076 30.6676 27.3076 30.6606 27.3076 30.6583V29.9207C28.8037 29.9114 30.3091 29.9022 31.8399 29.8952C32.499 29.8952 33.0725 29.4443 33.2297 28.8084L33.2343 28.7968C33.2413 28.7714 33.2459 28.7483 33.2528 28.7228L33.3129 28.3968V28.3806L34.4484 22.5532C34.5039 22.2688 34.7767 22.0861 35.0611 22.1393C35.3456 22.1948 35.5283 22.47 35.4728 22.7521L34.5755 27.3631L34.3744 28.3968L34.2495 29.0373C34.638 33.72 35.0218 38.4027 35.408 43.0877H26.3803V43.0854Z" fill="#D9AE5F"/>
</g>
<defs>
<clipPath id="clip0_502_1335">
<rect width="47.2084" height="45" fill="white"/>
</clipPath>
</defs>
</svg>
