<svg width="54" height="35" viewBox="0 0 54 35" fill="none" xmlns="http://www.w3.org/2000/svg">
<g clip-path="url(#clip0_991_143)">
<path d="M11.5023 29.0457V29.041H3.64092C3.64092 29.041 3.64092 29.0434 3.64092 29.0457C3.00995 29.0457 2.49817 29.5583 2.49817 30.1902V31.6296C2.49817 33.488 4.18543 34.9976 6.25827 34.9976H8.88497C10.9578 34.9976 12.6451 33.4856 12.6451 31.6296V30.1902C12.6451 29.5583 12.1333 29.0457 11.5023 29.0457Z" fill="#291F69"/>
<path d="M7.85905 8.79798C8.00628 8.86117 8.16051 8.8916 8.31241 8.8916C8.75409 8.8916 9.17707 8.6318 9.36169 8.20115L10.9695 4.47038C11.5397 3.14565 12.8414 2.28902 14.2809 2.28902H27.3233C28.7371 2.28902 30.0271 3.12224 30.609 4.41186L32.1677 7.86178C32.4271 8.43754 33.1048 8.69266 33.6797 8.43286C34.2546 8.17306 34.5093 7.49432 34.2499 6.91855L32.6912 3.46864C31.7377 1.36218 29.6321 0 27.3209 0H14.2786C11.9253 0 9.80103 1.39963 8.86626 3.5646L7.25846 7.29537C7.00841 7.87582 7.27482 8.54989 7.85438 8.80032L7.85905 8.79798Z" fill="#291F69"/>
<path d="M46.4066 26.8925L40.2815 27.0962L41.9057 21.6451L42.3988 19.988C42.5624 19.4403 42.3474 18.8552 41.8776 18.5603C41.429 18.2795 40.8658 18.3333 40.4755 18.6937L37.2155 21.6872L35.9185 22.8786L35.7619 21.706L34.9837 15.8219C34.9791 15.7892 34.972 15.754 34.9627 15.7236C34.8272 15.1689 34.3621 14.7944 33.8106 14.7944C33.2591 14.7944 32.8268 15.1455 32.6725 15.6698L32.1 17.3456L30.1183 23.129L27.2883 20.531L25.2878 18.6914C24.9373 18.3684 24.4489 18.2912 24.0306 18.4784C23.9815 18.5018 23.9301 18.5275 23.8834 18.5556C23.4767 18.8131 23.2594 19.2882 23.3178 19.7657C23.3272 19.8382 23.3412 19.9108 23.3622 19.9833L25.4818 27.0891L19.3567 26.8855C18.845 26.8691 18.3939 27.1757 18.2093 27.6719C18.1579 27.8077 18.1322 27.9504 18.1299 28.0885C18.1158 28.4724 18.2794 28.8445 18.5832 29.095L24.727 34.12C25.1359 34.4524 25.7342 34.3892 26.066 33.9843C26.2273 33.7877 26.2997 33.5396 26.2764 33.2868C26.2507 33.034 26.1268 32.807 25.9305 32.6455L21.2964 28.8586L26.7391 29.0388C27.0499 29.0505 27.335 28.9147 27.5243 28.669C27.7112 28.4256 27.772 28.1073 27.6832 27.8147L25.9025 21.837L29.9056 25.5163C30.144 25.734 30.4711 25.8182 30.7843 25.7363C31.0974 25.6567 31.3451 25.4274 31.4503 25.1231L33.3876 19.4708C33.4507 19.5504 33.5138 19.6299 33.5839 19.7095L34.2756 24.9359C34.3224 25.2893 34.5584 25.5865 34.8926 25.7059C35.2268 25.8276 35.5983 25.755 35.8624 25.514L39.8679 21.8347L38.0848 27.8124C37.9984 28.1049 38.0568 28.4232 38.2437 28.6666C38.4307 28.9101 38.7228 29.0481 39.0289 29.0364L44.4716 28.8562L39.8375 32.6432C39.6412 32.8047 39.5197 33.0317 39.4917 33.2845C39.4683 33.5396 39.5407 33.7877 39.702 33.9819C39.8843 34.2043 40.153 34.333 40.4404 34.333C40.6578 34.333 40.8728 34.2581 41.041 34.1177L47.1848 29.0926C47.5984 28.7556 47.7503 28.1822 47.5564 27.6696C47.3717 27.1734 46.9137 26.8691 46.4113 26.8832L46.4066 26.8925Z" fill="#291F69"/>
<path d="M53.2 9.95652C53.2 9.39714 52.7466 8.94308 52.1881 8.94308H50.5593C49.912 8.94308 49.3044 9.19586 48.8463 9.6546L47.3507 11.1525H47.2969C44.3384 11.1361 42.2118 11.1268 40.7489 11.1244V9.90035C40.7489 9.0484 40.0572 8.35327 39.2065 8.35327H36.3859C35.3202 8.35327 34.32 8.76988 33.5675 9.52353L30.9175 12.18H9.83376L7.18369 9.52353C6.43121 8.76988 5.42867 8.35327 4.36303 8.35327H1.5447C0.694066 8.35327 0 9.0484 0 9.90035V11.2602C0 11.5528 0.236029 11.7891 0.528144 11.7891L2.88142 13.3245L1.82747 14.8458C0.960474 16.0957 0.502438 17.5632 0.502438 19.0869V25.8509C0.502438 26.9252 1.37645 27.7982 2.44909 27.7982H15.7742C15.7789 27.4589 15.8396 27.1171 15.9635 26.7848C16.3935 25.6403 17.4498 24.8983 18.6533 24.8983C18.6907 24.8983 18.7257 24.8983 18.7515 24.9007L22.9042 25.0364L21.3314 19.7679C21.2543 19.5058 21.2146 19.2413 21.2099 18.9792H14.3253V22.8387C14.3253 23.3279 13.9304 23.7211 13.4466 23.7211C12.9629 23.7211 12.5656 23.3279 12.5656 22.8387V18.0992C12.5656 17.6123 12.9606 17.2191 13.4466 17.2191H21.738C21.9554 16.9008 22.2405 16.6246 22.5793 16.4117C23.0327 16.1261 23.5562 15.9763 24.0913 15.9763C24.8064 15.9763 25.4935 16.2431 26.024 16.7323L29.2489 19.693L31.1068 14.2677C31.261 13.7669 31.5321 13.3362 31.8873 13.0015C32.128 12.7698 32.4061 12.5849 32.7122 12.4515C33.0628 12.2994 33.4507 12.2151 33.8573 12.2151H33.8596C35.1823 12.2151 36.3321 13.1279 36.6523 14.4292C36.6756 14.5229 36.6943 14.6212 36.7084 14.7195L37.2739 18.9956L39.737 16.7323C40.2698 16.2431 40.9545 15.974 41.672 15.974C42.2048 15.974 42.7283 16.1261 43.1816 16.4117C44.2987 17.1091 44.8105 18.49 44.4295 19.7679C44.2122 20.442 43.9972 21.1161 43.7799 21.7901C46.4089 21.8042 49.0379 21.8159 51.667 21.8299C52.3517 21.8299 52.9102 21.2706 52.9102 20.5848V15.2625C52.9102 14.3567 52.6391 13.4884 52.1227 12.7464L51.4169 11.7259C51.3866 11.6815 51.3468 11.6464 51.3048 11.6159C52.1928 11.6908 52.9266 11.4802 53.1369 11.0144C53.1603 10.9606 53.1766 10.8997 53.186 10.8342C53.186 10.8272 53.1883 10.8178 53.1907 10.8108C53.1907 10.7968 53.1953 10.7851 53.1977 10.7687C53.1977 10.7687 53.1977 10.7663 53.1977 10.764C53.1977 10.757 53.1977 10.75 53.1977 10.7406V9.95418L53.2 9.95652ZM9.70991 18.9792H5.2534C4.76732 18.9792 4.37472 18.586 4.37472 18.0992C4.37472 17.6123 4.76732 17.2191 5.2534 17.2191H9.70991C10.1983 17.2191 10.5886 17.6123 10.5886 18.0992C10.5886 18.586 10.1983 18.9792 9.70991 18.9792ZM47.8905 14.3286H50.6831C50.9589 14.3286 51.1809 14.5509 51.1809 14.8248C51.1809 15.0986 50.9589 15.3233 50.6831 15.3233H47.8905C47.6171 15.3233 47.3951 15.101 47.3951 14.8248C47.3951 14.5486 47.6171 14.3286 47.8905 14.3286ZM44.8432 16.3531V14.3029H38.6433C38.4096 14.3029 38.218 14.1109 38.218 13.8769C38.218 13.6428 38.4096 13.4532 38.6433 13.4532H45.2685C45.5022 13.4532 45.6915 13.6428 45.6915 13.8769V16.3531C45.6915 16.5895 45.5022 16.7791 45.2685 16.7791C45.0348 16.7791 44.8432 16.5895 44.8432 16.3531Z" fill="#291F69"/>
<path d="M36.0306 5.46037H44.9881C45.3853 5.46037 45.7429 5.69676 45.8995 6.06188L46.8412 8.2643C46.9815 8.59431 47.3039 8.8073 47.6615 8.8073C47.783 8.8073 47.8999 8.7839 48.012 8.73475C48.4631 8.54048 48.6734 8.01621 48.4794 7.56215L47.5376 5.35973C47.1006 4.33458 46.0981 3.67456 44.9857 3.67456H36.0283C35.5376 3.67456 35.1379 4.07479 35.1379 4.5663C35.1379 5.0578 35.5376 5.45803 36.0283 5.45803L36.0306 5.46037Z" fill="#291F69"/>
<path d="M50.6878 22.5063H46.6309C46.4276 22.5063 46.264 22.6702 46.264 22.8738V24.2102C46.264 24.4841 46.3762 24.7345 46.5608 24.9147C46.7384 25.0879 46.9791 25.1979 47.2502 25.1979H50.0709C50.613 25.1979 51.0571 24.7532 51.0571 24.2102V22.8738C51.0571 22.6702 50.8911 22.5063 50.6878 22.5063Z" fill="#291F69"/>
</g>
<defs>
<clipPath id="clip0_991_143">
<rect width="53.2" height="35" fill="white"/>
</clipPath>
</defs>
</svg>
