<svg width="149" height="120" viewBox="0 0 149 120" fill="none" xmlns="http://www.w3.org/2000/svg">
<g clip-path="url(#clip0_991_74)">
<path d="M139.001 83.5605C136.476 83.2066 133.741 83.5081 131.192 83.5294C128.308 83.5539 125.422 83.5613 122.54 83.6752C122.183 83.6891 122.079 84.0971 122.493 84.1069C125.065 84.1642 127.639 84.143 130.212 84.1257C133.069 84.1069 136.025 84.3002 138.864 83.9808C139.109 83.9529 139.391 83.6154 139 83.5605H139.001Z" fill="#291F69"/>
<path d="M137.727 86.2532C135.864 85.4291 133.067 85.6568 131.085 85.9542C130.722 86.0091 130.808 86.3196 131.141 86.3351C132.055 86.3777 132.971 86.3155 133.887 86.345C135.095 86.3843 136.287 86.6407 137.493 86.6178C137.662 86.6145 138.031 86.3876 137.727 86.2532Z" fill="#291F69"/>
<path d="M38.2467 83.9816C35.599 84.052 32.9743 84.5165 30.3119 84.5517C27.6176 84.587 24.9667 84.2896 22.2895 84.0537C22.0274 84.0307 21.5056 84.4862 21.9512 84.5714C24.5841 85.0744 27.3046 85.1891 29.981 85.2005C32.6433 85.2112 35.5056 85.1498 38.0976 84.501C38.3654 84.4338 38.7587 83.9685 38.2475 83.9824L38.2467 83.9816Z" fill="#291F69"/>
<path d="M34.4554 86.7488C31.9806 86.4088 29.3289 86.6349 26.841 86.7603C26.4699 86.7791 26.2045 87.1797 26.7124 87.2117C29.1954 87.3681 31.7873 87.4976 34.2613 87.2248C34.5398 87.1936 34.9306 86.8144 34.4546 86.7488H34.4554Z" fill="#291F69"/>
<path d="M73.7268 102.955C74.6181 103.12 75.5651 103 76.4662 102.984C77.6295 102.965 78.7936 102.98 79.947 102.799C80.3443 102.737 80.2984 102.359 79.9413 102.278C79.0516 102.077 78.0932 102.21 77.1904 102.233C76.0263 102.264 74.8549 102.248 73.7006 102.421C73.2861 102.483 73.3713 102.889 73.7268 102.954V102.955Z" fill="#291F69"/>
<path d="M76.2803 100.751C77.1216 100.763 77.9416 100.823 78.7821 100.733C79.1466 100.695 79.1737 100.306 78.8059 100.232C77.94 100.057 77.0126 100.218 76.141 100.248C75.6192 100.266 75.8969 100.745 76.2803 100.751Z" fill="#291F69"/>
<path d="M75.8912 28.5982C74.0693 28.5932 73.0682 28.7464 70.3862 28.6178C70.0339 28.6006 69.7046 28.6154 69.5097 28.7915C69.3253 28.8292 69.1828 28.9783 69.1795 29.2756C68.9739 48.1384 69.0935 67.179 69.3311 86.0402C69.3319 86.1336 69.3368 86.3949 69.3409 86.6309C69.345 86.8717 69.54 87.0658 69.7808 87.0683C70.922 87.0798 73.9907 87.1101 74.9114 87.1183C75.3645 87.1224 77.4354 86.9634 77.4354 86.9634C77.4354 86.9634 77.4559 86.2335 77.5566 85.5995C77.7934 84.1061 77.6164 81.9737 77.6484 81.1627C77.7491 78.6461 77.777 76.1271 77.7713 73.6081C77.7606 68.6462 77.6091 63.6868 77.5599 58.7257C77.4649 49.2329 77.3961 39.7384 77.3076 30.2447C77.3035 29.8073 77.7483 28.6023 75.8912 28.5973V28.5982ZM76.1714 86.1451C74.3314 86.0804 72.485 86.091 70.6418 85.9608C70.6426 85.9394 70.6467 85.9198 70.6467 85.8977C70.7131 67.1815 70.7393 48.3031 70.3813 29.6C70.3796 29.5066 70.3608 29.4198 70.3329 29.3395C72.2556 29.4157 74.1864 29.4624 76.1091 29.401C76.0665 29.5451 76.0395 29.7188 76.0411 29.9318C76.1099 39.5352 76.2017 49.137 76.2615 58.7413C76.3164 67.5247 76.694 76.8095 76.1091 85.4717C76.0911 85.733 76.1181 85.9583 76.1714 86.1467V86.1451Z" fill="#291F69"/>
<path d="M68.4775 87.2174C66.2353 87.509 65.5013 94.337 65.3342 96.0016C65.0418 98.918 65.0844 101.863 65.3547 104.779C65.3842 105.099 65.725 105.179 66.0576 105.117C71.0596 105.412 76.06 105.293 81.062 105.081C81.7354 105.052 81.9909 104.539 81.5961 104.353C81.6698 104.28 81.7198 104.197 81.728 104.104C81.9614 101.571 82.149 99.0523 81.7747 96.5235C81.5355 94.9064 81.071 93.3368 80.5598 91.7885C80.2428 90.8292 79.8119 88.13 79.0328 87.5353C78.2161 86.9118 75.1113 87.3935 74.0849 87.4107C73.0437 87.4279 69.4064 87.0962 68.4767 87.2174H68.4775ZM71.9394 88.0415C73.1068 88.1218 74.2905 88.0661 75.4595 88.0825C78.9616 88.1333 80.0658 92.0048 80.4443 94.849C80.6794 96.6169 80.7064 98.4109 80.6507 100.191C80.6229 101.068 80.5827 101.956 80.4615 102.826C80.3714 103.473 80.2764 103.848 80.0888 104.069C79.8119 104.396 79.3318 104.389 78.3619 104.425C77.3682 104.463 66.7293 104.764 66.6965 104.404C66.4213 101.376 66.4295 98.3675 66.7301 95.3414C66.9079 93.5539 66.9087 91.4543 67.7771 89.7971C68.5832 88.2594 70.351 87.9317 71.9394 88.0407V88.0415Z" fill="#291F69"/>
<path d="M101.66 117.202C91.4477 116.281 80.985 116.331 70.7843 117.242C70.3502 117.28 70.514 117.764 70.8744 117.764C75.7831 117.773 80.6901 117.61 85.5987 117.647C90.8137 117.687 96.0131 118.036 101.224 118.23C101.617 118.244 102.214 117.253 101.659 117.202L101.66 117.202Z" fill="#291F69"/>
<path d="M84.8261 115.185C86.4989 115.363 88.1791 115.308 89.8552 115.294C91.6451 115.278 93.4597 115.399 95.2242 115.012C95.556 114.939 95.7469 114.5 95.3274 114.395C93.8594 114.029 92.2866 114.279 90.7981 114.33C88.7861 114.398 86.7807 114.471 84.7754 114.677C84.3641 114.719 84.4698 115.146 84.8261 115.184V115.185Z" fill="#291F69"/>
<path d="M74.2414 14.3712C72.1475 13.4045 69.6702 16.4986 71.5257 18.1665C72.4473 18.9947 74.1488 18.6826 74.8467 17.7135C75.6586 16.5879 75.5857 14.9921 74.2405 14.3712H74.2414ZM73.772 17.4382C73.4607 17.9961 72.6275 17.5218 72.4072 17.1417C72.1286 16.66 72.2433 15.9538 72.671 15.5959C72.7611 15.5778 72.852 15.5615 72.9421 15.5467C73.0027 15.5369 73.1092 15.4853 73.083 15.4173C73.1821 15.4263 73.2837 15.4386 73.3042 15.4435C73.4107 15.4681 73.5057 15.5246 73.5942 15.5877C73.8473 15.8719 73.9735 16.2873 74.0144 16.6895C73.98 16.9606 73.8891 17.2269 73.772 17.4374V17.4382Z" fill="#291F69"/>
<path d="M147.749 80.1357C147.115 80.1226 146.48 80.1136 145.846 80.103C141.242 72.6483 137.765 64.5956 134.36 56.5412C132.829 52.9195 131.299 49.2971 129.678 45.7147C128.109 42.2487 126.53 38.6369 124.482 35.4182C126.867 34.8612 128.806 33.3457 129.794 31.2002C129.944 30.9118 130.062 30.6096 130.139 30.2909C130.278 29.7248 130.512 28.981 130.057 28.4305C130.017 28.383 129.979 28.3404 129.94 28.3019C128.833 27.1861 128.424 29.9607 128.175 30.5047C127.49 31.9989 125.445 32.8427 123.896 32.7575C121.243 32.6117 118.726 31.3739 116.362 30.2507C112.123 28.2363 108.079 25.8639 104.007 23.5374C100.005 21.251 95.956 18.977 91.6766 17.2452C87.837 15.692 83.1422 13.807 79.0503 15.1972C78.7857 12.5536 76.9744 10.7064 74.6102 10.1354C74.9281 9.93631 75.1706 9.68891 75.3451 9.40629C77.4209 7.21575 74.2932 2.865 73.6329 0.554868C73.6116 0.480321 73.5592 0.4197 73.4896 0.36891C73.3749 0.113321 72.9956 -0.00955889 72.6384 0.000271473C71.7365 2.16213 70.3832 4.23798 69.6541 6.45226C69.1691 7.92436 69.5206 9.63566 70.7739 10.4221C68.8382 11.211 66.9409 12.901 67.1883 14.8548C63.42 14.2199 59.3208 15.8657 55.9326 17.2444C51.6563 18.9835 47.6038 21.2494 43.602 23.5366C39.5298 25.8631 35.487 28.2363 31.2469 30.2499C28.8819 31.373 26.3677 32.6371 23.7136 32.7567C22.4348 32.8148 21.1069 32.2922 20.1787 31.4156C19.3292 30.6128 19.466 29.3644 18.818 28.4846C18.4699 28.0127 17.033 27.5367 17.1436 28.6861C17.1977 29.2464 17.3115 29.7781 17.4696 30.286C17.5475 30.6063 17.6654 30.9102 17.8162 31.1986C18.9221 33.6013 21.2207 35.2143 24.0019 35.5755C22.0022 38.7548 20.4466 42.3036 18.9032 45.7139C17.282 49.2962 15.7526 52.9187 14.2215 56.5404C10.8169 64.5947 7.33945 72.6474 2.73557 80.1021C2.10151 80.1128 1.46663 80.1218 0.832572 80.1349C0.38611 80.1439 -0.320038 80.9467 0.160831 81.1007C4.21995 89.2001 13.7226 91.2809 22.0309 91.5185C26.7798 91.6536 31.455 91.3153 35.8712 89.4459C38.2821 88.426 40.5095 87.017 42.5797 85.422C43.7011 84.5586 44.8972 83.7836 45.9293 82.8096C46.2202 82.5351 48.4811 79.9686 47.3515 79.9883C47.059 79.9932 46.7657 79.9965 46.4733 80.0014C41.8997 72.5745 38.4386 64.5579 35.0488 56.5396C33.5177 52.9179 31.9883 49.2954 30.3671 45.7131C28.8327 42.3224 27.2861 38.795 25.3028 35.6296C27.1419 35.5518 28.9933 34.8727 30.6497 34.2001C33.1622 33.1794 35.6189 32.0087 38.0864 30.884C43.1711 28.5665 48.4238 26.6315 53.955 24.903C57.4948 23.7963 61.3466 23.1598 65.0551 22.8722C65.4008 22.8452 65.7457 22.8174 66.0914 22.7887C65.9079 24.7973 66.6829 27.3803 68.6408 28.0528C68.703 28.2224 68.9168 28.383 69.2085 28.3903C72.0068 28.4583 74.8953 28.4084 77.6863 28.1946C77.896 28.1782 78.0656 28.0881 78.1688 27.9742C78.218 27.9422 78.2622 27.9062 78.295 27.8644C79.455 26.3809 80.044 24.6237 79.8728 22.7797C84.9256 23.3121 91.8183 24.2436 93.9359 24.9022C99.3213 26.5775 104.398 28.5509 109.524 30.8832C111.992 32.0063 114.448 33.1786 116.96 34.1993C118.912 34.9923 121.137 35.7926 123.292 35.6066C121.302 38.7778 119.752 42.3134 118.214 45.7123C116.592 49.2946 115.063 52.9171 113.532 56.5388C110.142 64.5571 106.681 72.5737 102.107 80.0005C101.815 79.9956 101.522 79.9924 101.227 79.9874C100.916 79.9825 101.017 80.2971 101.324 80.755C102.084 81.8847 104.109 83.8819 104.336 84.0728C106.872 86.2215 109.637 88.145 112.709 89.4451C117.126 91.3137 121.8 91.625 126.55 91.5176C134.813 91.3309 144.102 89.4934 148.42 81.0999C148.902 80.9451 148.195 80.1431 147.748 80.1341L147.749 80.1357ZM72.0347 4.67625C72.151 4.46899 73.0939 3.19842 73.2184 2.9846C72.7326 3.82019 74.448 6.0058 74.584 6.98556C74.7618 8.26187 74.43 9.78394 72.9145 9.9404C72.8981 9.94204 72.8842 9.9404 72.8686 9.9404C72.8703 9.94368 72.8711 9.94778 72.8735 9.95105C72.8424 9.95105 72.8113 9.94941 72.7793 9.95105C72.6212 9.95679 72.4566 9.97235 72.2878 9.99693C70.7641 8.34297 70.973 6.57105 72.0339 4.67706L72.0347 4.67625ZM22.6478 90.4781C18.7427 90.098 14.7655 89.8129 11.1184 88.317C9.326 87.5822 7.62371 86.6303 6.07461 85.4654C4.56975 84.3333 3.27624 83.5722 2.57091 81.7405C4.10362 81.2531 5.30866 81.2007 6.88643 81.2105C8.80417 81.2228 10.7227 81.2252 12.6405 81.222C16.3097 81.2154 19.9797 81.1843 23.6488 81.1482C30.2335 81.0835 36.8191 81.0155 43.4046 81.054C43.9477 81.0573 44.5891 81.1982 44.9635 81.7413C45.5312 82.5655 33.6119 91.5463 22.6478 90.4789V90.4781ZM30.3163 46.9796C32.148 51.0755 33.856 55.2256 35.6075 59.356C38.6057 66.4265 41.758 73.4502 45.7639 80.0137C31.6655 80.2234 17.5581 79.8801 3.45973 80.0907C7.48854 73.5043 10.6531 66.4543 13.6636 59.356C15.4151 55.2256 17.1231 51.0755 18.9548 46.9796C20.6784 43.1261 22.6748 39.4249 24.4983 35.6255C24.5909 35.6312 24.6843 35.6329 24.7769 35.6345C26.5996 39.4307 28.5943 43.1285 30.3163 46.9787V46.9796ZM118.529 33.7364C113.838 31.9235 109.343 29.5995 104.722 27.617C100.323 25.7296 95.8602 24.0191 91.2162 22.8346C88.9666 22.2611 86.6835 21.8228 84.3857 21.4968C83.2683 21.3387 82.1616 21.0135 81.0245 21.029C79.4926 21.0495 78.7816 21.5288 78.5842 23.0049C78.5776 23.0566 78.5653 23.1049 78.5514 23.1508C78.6202 24.6728 78.2245 26.1589 77.3021 27.4147C74.8183 27.3262 72.2682 27.4704 69.7827 27.6162C69.7712 27.5941 69.7573 27.5711 69.7376 27.5474C69.0077 26.6864 68.2344 26.1187 67.7568 25.0284C67.3317 24.0584 67.7593 22.6478 67.1973 21.8286C66.2782 20.49 63.4225 21.4583 62.1478 21.659C60.2137 21.9638 58.2918 22.3504 56.3946 22.8346C51.7506 24.0191 47.2876 25.7296 42.8885 27.617C38.2674 29.5995 33.7725 31.9235 29.0817 33.7364C26.7855 34.6236 24.3468 35.048 22.0948 33.9166C23.0975 33.9969 24.1338 33.8765 25.0742 33.6963C27.463 33.2375 29.7871 32.0718 31.9784 31.0503C34.418 29.9116 36.783 28.6205 39.1333 27.309C43.5127 24.8653 48.0052 22.221 52.6164 20.2426C56.787 18.4543 59.3306 16.6832 66.4289 15.923C66.8205 15.8812 69.1634 15.7223 68.9127 15.3913C68.9242 15.3479 68.9299 15.3037 68.9201 15.2537C68.4392 12.7306 70.7666 11.5108 73.1217 11.6239C75.4614 11.7361 77.212 13.5187 77.4094 15.6584C77.4881 16.5054 80.0005 16.1434 80.5052 16.0582C84.9116 15.3209 92.0444 19.0212 95.0901 20.5646C99.5662 22.8329 104.097 24.8662 108.476 27.309C110.826 28.6205 113.191 29.9116 115.631 31.0503C117.822 32.0726 120.146 33.2383 122.535 33.6963C123.475 33.8765 124.512 33.9977 125.514 33.9166C123.262 35.0488 120.824 34.6244 118.527 33.7364H118.529ZM112.975 59.356C114.726 55.2256 116.434 51.0755 118.266 46.9796C120.003 43.0966 122.016 39.3692 123.851 35.5395C123.91 35.5305 123.97 35.5231 124.029 35.5124C125.867 39.3512 127.887 43.0876 129.627 46.9796C131.459 51.0755 133.167 55.2256 134.919 59.356C137.929 66.4543 141.094 73.5051 145.123 80.0907C131.024 79.8801 116.916 80.2234 102.818 80.0137C106.825 73.4494 109.977 66.4265 112.975 59.356ZM143.863 85.2049C142.015 86.6885 139.772 87.6969 137.565 88.5186C133.863 89.8981 129.866 90.3994 125.934 90.4781C121.295 90.5698 116.673 90.3118 112.414 88.2826C110.666 87.4495 109.081 86.1961 107.57 85.0026C106.383 84.0654 104.261 82.8341 103.69 81.4071C105.026 80.95 106.892 81.1261 108.31 81.0606C110.014 80.9811 111.729 80.8845 113.436 80.9131C117.21 80.977 120.986 81.154 124.761 81.154C128.441 81.1892 132.121 81.222 135.802 81.2293C137.642 81.2326 139.482 81.2302 141.323 81.2187C142.676 81.2105 144.218 81.018 145.556 81.2646C147.693 81.6578 144.48 84.7101 143.863 85.2049H143.863Z" fill="#291F69"/>
<path d="M73.0658 105.684C64.483 105.993 55.6095 105.05 47.8755 110.273C44.6749 112.435 40.7952 115.519 41.4071 119.864C41.4579 120.221 72.4071 119.762 78.6805 119.762C83.4483 119.762 88.2062 120.001 92.9739 120C95.316 120 105.667 119.985 105.412 120C106.258 118.528 104.452 116.172 103.675 115.027C96.6922 104.739 84.0258 105.29 73.0658 105.684ZM103.749 118.851C101.231 119.034 98.7672 119.058 96.2351 119.029C93.1992 118.995 90.1345 118.751 87.0986 118.738C80.9718 118.711 74.8795 118.755 68.7527 118.775C60.582 118.803 43.637 118.666 43.1217 118.627C42.6523 114.39 46.9776 112.535 50.0636 110.601C54.5183 107.809 59.4876 107.073 64.6387 106.985C68.6954 106.915 72.8872 106.711 76.9447 106.668C82.1081 106.614 89.5087 107.013 92.7191 108.215C94.8376 109.008 96.0786 109.685 97.9226 110.953C99.629 112.126 101.149 113.488 102.454 115.132C102.746 115.5 104.426 118.802 103.749 118.851V118.851Z" fill="#291F69"/>
</g>
<defs>
<clipPath id="clip0_991_74">
<rect width="148.582" height="120" fill="white"/>
</clipPath>
</defs>
</svg>
