<svg width="86" height="120" viewBox="0 0 86 120" fill="none" xmlns="http://www.w3.org/2000/svg">
<g clip-path="url(#clip0_991_44)">
<path d="M84.0218 86.3867C84.0218 86.0821 84.0218 85.8381 84.0218 85.5941C84.0218 81.2598 84.0218 76.9254 84.0218 72.5911C84.0218 72.3664 83.9961 72.1343 84.041 71.9187C84.1401 71.438 84.4639 71.1656 84.9519 71.1748C85.4354 71.184 85.7555 71.4491 85.8417 71.9417C85.8693 72.1013 85.8592 72.2682 85.8592 72.4315C85.8592 77.2768 85.8592 82.1221 85.8564 86.9683C85.8564 88.0452 85.6097 88.2892 84.5089 88.2892C68.9548 88.2864 53.4007 88.2791 37.8467 88.2773C28.6698 88.2773 19.4921 88.2681 10.3152 88.2956C5.42038 88.3103 1.56214 92.4015 1.86027 97.1872C2.14739 101.789 5.83593 105.144 10.6363 105.146C24.0034 105.15 37.3697 105.147 50.7369 105.148C51.002 105.148 51.268 105.148 51.5331 105.162C52.0734 105.193 52.3642 105.52 52.388 106.026C52.4119 106.533 52.1339 106.877 51.6212 106.984C51.4634 107.017 51.2964 107.013 51.1331 107.013C40.1776 107.011 29.223 107.006 18.2674 107.005C15.6311 107.005 12.9938 107.029 10.3574 107.014C6.03223 106.988 2.27123 104.426 0.708114 100.47C0.229274 99.2585 0.00728234 97.9999 0.00728234 96.6983C0.00911697 88.9497 0.00819966 81.2011 0.00819966 73.4525C0.00819966 73.391 0.00819966 73.3296 0.0100343 73.2681C0.0338846 72.6379 0.37421 72.2682 0.929188 72.2691C1.47774 72.2691 1.84009 72.6489 1.84192 73.2709C1.84926 75.5605 1.84651 77.8501 1.84651 80.1397C1.84651 83.4109 1.84651 86.6821 1.84651 89.9532C1.84651 90.1679 1.84651 90.3825 1.84651 90.4504C2.44735 89.9266 3.08397 89.3661 3.72701 88.8139C5.17821 87.5682 6.86883 86.8343 8.74933 86.5738C9.26211 86.5023 9.37036 86.3261 9.36944 85.851C9.35568 79.7581 9.36027 73.6662 9.36027 67.5734C9.36027 52.9761 9.36027 38.3779 9.36027 23.7806C9.36027 16.7677 9.36027 9.75569 9.36118 2.74278C9.36118 2.48502 9.36118 2.22633 9.36118 1.92087C7.20824 2.18414 5.4901 3.08219 4.09486 4.58843C2.5822 6.22034 1.85109 8.17423 1.85018 10.3923C1.84467 24.5814 1.84651 38.7696 1.84651 52.9587C1.84651 54.5328 1.84651 56.1069 1.84651 57.681C1.84651 58.6075 1.58324 58.9845 0.939278 58.9882C0.29899 58.9919 0.0118689 58.5947 0.0118689 57.6939C0.0100343 46.0604 0.00911697 34.4279 0.00911697 22.7945C0.00911697 18.4803 -0.0266585 14.1662 0.0311326 9.85292C0.0980969 5.02599 4.00863 0.729269 8.8007 0.12659C9.42723 0.0477006 10.0639 0.00642123 10.6959 0.00550391C18.4215 -0.00275196 26.1472 1.70864e-10 33.8729 0.00275196C34.1371 0.00275196 34.4104 -0.0045866 34.6645 0.0568738C35.1489 0.173373 35.3782 0.523789 35.3387 1.01364C35.3002 1.5044 35.0305 1.80437 34.5177 1.83372C34.2728 1.84748 34.027 1.84289 33.782 1.84289C26.5462 1.84289 19.3113 1.84289 12.0755 1.84289C11.815 1.84289 11.5554 1.84289 11.2426 1.84289V86.3876H84.0218V86.3867Z" fill="#291F69"/>
<path d="M47.4208 94.6719C36.3047 94.6719 25.1877 94.6737 14.0716 94.6664C13.7946 94.6664 13.4203 94.6719 13.2635 94.5095C13.0415 94.2793 12.8333 93.8647 12.8892 93.583C12.9452 93.3042 13.3075 93.0455 13.5919 92.8685C13.7552 92.7657 14.0304 92.8363 14.2542 92.8363C35.6286 92.8363 57.0031 92.8363 78.3775 92.8363C79.1949 92.8363 80.0122 92.8336 80.8295 92.84C81.6001 92.8455 82.0285 93.1785 82.0266 93.7573C82.0248 94.3435 81.6001 94.6747 80.8304 94.6747C73.7194 94.6747 66.6083 94.6737 59.4973 94.6728C55.4721 94.6728 51.446 94.6728 47.4208 94.6728V94.6719Z" fill="#291F69"/>
<path d="M63.6464 113.01C62.0503 114.569 60.6183 115.966 59.1891 117.365C58.4296 118.108 57.6691 118.85 56.9151 119.599C56.5867 119.926 56.2317 120.118 55.7639 119.918C55.2951 119.717 55.1951 119.326 55.1961 118.864C55.1988 111.873 55.1988 104.882 55.1997 97.8908C55.1997 97.7275 55.1878 97.556 55.2337 97.4037C55.3639 96.9707 55.6465 96.7029 56.1244 96.7084C56.5995 96.7139 56.8949 96.968 56.9922 97.4193C57.0435 97.655 57.0307 97.9064 57.0316 98.1513C57.0344 104.1 57.0344 110.048 57.0353 115.997C57.0353 116.216 57.0353 116.434 57.0353 116.86C57.7609 116.156 58.3507 115.586 58.9387 115.013C60.2404 113.745 61.5384 112.471 62.8437 111.206C63.3492 110.716 63.8078 110.758 64.3858 111.323C66.1094 113.01 67.8312 114.698 69.5548 116.385C69.6686 116.497 69.7888 116.603 70.0346 116.833C70.0346 116.464 70.0346 116.234 70.0346 116.005C70.0346 109.975 70.0346 103.944 70.0346 97.9137C70.0346 97.134 70.3043 96.7561 70.8739 96.7148C71.3922 96.6772 71.7903 96.9918 71.861 97.5073C71.8802 97.6477 71.872 97.7926 71.872 97.9357C71.872 104.845 71.872 111.754 71.8711 118.663C71.8711 118.887 71.8839 119.121 71.828 119.334C71.6427 120.045 70.8051 120.208 70.2153 119.638C68.7173 118.189 67.2212 116.739 65.7461 115.267C65.0398 114.561 64.383 113.804 63.6464 113.009V113.01Z" fill="#291F69"/>
<path d="M84.0218 1.84473C83.6815 1.84473 83.421 1.84473 83.1605 1.84473C73.8845 1.84473 64.6086 1.84289 55.3327 1.84197C55.1492 1.84197 54.9648 1.84473 54.7814 1.8328C54.2154 1.79611 53.8852 1.4833 53.8631 0.971438C53.8411 0.454988 54.1989 0.0559539 54.775 0.0265997C55.4474 -0.00734109 56.1225 0.000914783 56.7967 0.000914783C66.0516 -2.53589e-06 75.3073 -2.53589e-06 84.5621 0.000914783C85.5593 0.000914783 85.8583 0.291705 85.8583 1.26957C85.8611 6.33775 85.8611 11.4059 85.8583 16.475C85.8583 17.3786 85.3474 17.8529 84.6429 17.6153C84.1301 17.4428 84.0163 17.0429 84.0173 16.5484C84.0246 12.604 84.0209 8.65949 84.0209 4.71502C84.0209 3.79678 84.0209 2.87946 84.0209 1.84381L84.0218 1.84473Z" fill="#291F69"/>
<path d="M85.8573 46.919C85.8573 51.313 85.8573 55.7069 85.8564 60.1009C85.8564 60.3055 85.8784 60.5164 85.8362 60.7118C85.7326 61.1907 85.4134 61.464 84.9244 61.4539C84.4401 61.4439 84.1227 61.176 84.0365 60.6843C84.0089 60.5256 84.0245 60.3578 84.0245 60.1945C84.0236 51.3249 84.0227 42.4554 84.0218 33.5849C84.0218 33.5234 84.0218 33.462 84.0218 33.4005C84.0319 32.7244 84.3575 32.3346 84.9217 32.3245C85.506 32.3135 85.8537 32.7153 85.8555 33.4289C85.8601 34.9618 85.8573 36.4946 85.8573 38.0275C85.8573 40.9904 85.8573 43.9543 85.8573 46.9172V46.919Z" fill="#291F69"/>
<path d="M44.3478 100.825C42.0609 100.825 39.7741 100.827 37.4872 100.822C37.2661 100.822 36.9698 100.856 36.8396 100.735C36.5928 100.506 36.2681 100.157 36.2956 99.8905C36.3268 99.5869 36.6662 99.2603 36.9524 99.0585C37.1358 98.9292 37.4661 98.9943 37.7303 98.9943C42.2013 98.9934 46.6732 98.9943 51.1442 98.9971C51.2662 98.9971 51.3901 98.9934 51.5112 99.0062C52.0505 99.0604 52.3973 99.4172 52.3991 99.9135C52.4009 100.429 52.0249 100.813 51.4524 100.819C49.9829 100.834 48.5124 100.826 47.0429 100.826C46.1448 100.826 45.2459 100.826 44.3478 100.826V100.825Z" fill="#291F69"/>
<path d="M18.9527 100.823C17.2979 100.823 15.6421 100.825 13.9873 100.823C13.2378 100.821 12.8406 100.515 12.8251 99.941C12.8085 99.3502 13.2278 98.9961 13.9928 98.9952C17.3438 98.9897 20.6947 98.9897 24.0466 98.9952C24.8007 98.9971 25.1667 99.3117 25.1694 99.9098C25.1731 100.498 24.7951 100.815 24.0402 100.818C22.3441 100.825 20.648 100.821 18.9518 100.821V100.823L18.9527 100.823Z" fill="#291F69"/>
<path d="M80.2791 105.144C81.6891 105.144 83.099 105.143 84.5089 105.146C84.7125 105.146 84.9189 105.149 85.1189 105.183C85.5555 105.257 85.8078 105.53 85.8473 105.969C85.8885 106.429 85.6886 106.771 85.2455 106.921C85.0382 106.991 84.8052 107.008 84.5832 107.008C81.7019 107.013 78.8215 107.009 75.9402 107.008C75.8384 107.008 75.7357 107.013 75.6338 107.003C75.0477 106.946 74.7037 106.602 74.6972 106.071C74.6908 105.519 74.9935 105.172 75.621 105.161C77.1731 105.133 78.7261 105.151 80.2791 105.151C80.2791 105.149 80.2791 105.147 80.2791 105.144Z" fill="#291F69"/>
<path d="M77.186 100.823C76.6751 100.823 76.1641 100.834 75.6532 100.82C75.0587 100.802 74.7111 100.466 74.6964 99.9281C74.6817 99.3823 75.0065 99.0209 75.6146 99.0072C76.6971 98.9824 77.7804 98.9824 78.8629 99.0072C79.4417 99.0209 79.7921 99.4254 79.7692 99.9538C79.7472 100.445 79.3811 100.801 78.8408 100.818C78.2895 100.834 77.7373 100.822 77.186 100.822V100.823Z" fill="#291F69"/>
<path d="M34.96 39.4842C34.7893 39.4842 34.6205 39.4337 34.4756 39.3374C34.2582 39.1925 34.1179 38.9567 34.0931 38.6962C34.0812 38.5696 33.8069 35.5544 34.8205 32.0658C36.1837 27.3746 39.2319 24.0961 43.636 22.5844C43.8671 22.5046 44.1084 22.4229 44.3643 22.3367C46.6659 21.5579 50.1434 20.381 58.2865 16.6925C58.5873 16.5558 58.9387 16.6016 59.1955 16.8099C59.4515 17.0181 59.5689 17.3529 59.4973 17.6749C59.2973 18.5748 59.1212 19.4563 58.9497 20.3094C57.7251 26.4179 56.6674 31.6943 48.6592 34.8187C42.5269 37.212 35.2865 39.4236 35.2141 39.4456C35.1306 39.4713 35.0453 39.4832 34.96 39.4832V39.4842ZM57.4379 18.9848C50.3232 22.1606 47.1025 23.2504 44.922 23.9879C44.6689 24.0732 44.4304 24.1539 44.201 24.2328C40.3189 25.5657 37.7303 28.347 36.5084 32.4997C35.9259 34.4802 35.8039 36.3249 35.7947 37.4395C38.0394 36.7322 43.3598 35.0159 48.0244 33.1959C55.1456 30.4174 56.0234 26.0344 57.2398 19.9673C57.3049 19.6444 57.3701 19.3169 57.4379 18.9848Z" fill="#291F69"/>
<path d="M73.5461 10.2749H21.812C20.9121 10.2749 20.1819 11.0042 20.1819 11.905V18.6445C20.1819 19.0628 20.5214 19.4031 20.9406 19.4031H21.1671C21.5854 19.4031 21.9258 19.0637 21.9258 18.6445V12.7764C21.9258 12.3581 22.2652 12.0178 22.6844 12.0178H72.6755C73.0938 12.0178 73.4341 12.3572 73.4341 12.7764V42.9535C73.4341 43.3718 73.0947 43.7121 72.6755 43.7121H22.6835C22.2652 43.7121 21.9249 43.3727 21.9249 42.9535V28.0039C21.9249 27.5856 21.5854 27.2453 21.1662 27.2453H20.9397C20.5214 27.2453 20.181 27.5847 20.181 28.0039V43.8249C20.181 44.7248 20.9103 45.455 21.8111 45.455H73.5451C74.445 45.455 75.1752 44.7257 75.1752 43.8249V11.905C75.1752 11.0051 74.4459 10.2749 73.5451 10.2749H73.5461Z" fill="#291F69"/>
<path d="M57.8361 76.2127C62.474 76.2127 67.1111 76.2127 71.749 76.2127C71.9738 76.2127 72.2013 76.2026 72.4214 76.2365C72.8975 76.309 73.1984 76.6567 73.137 77.0805C73.0902 77.4006 72.8031 77.7464 72.5269 77.9501C72.3325 78.0932 71.9765 78.0363 71.6931 78.0363C62.4181 78.04 53.1431 78.04 43.8681 78.04C43.6846 78.04 43.4984 78.0464 43.3177 78.018C42.7939 77.9363 42.5068 77.5951 42.5242 77.0896C42.5416 76.5897 42.826 76.2494 43.3718 76.2209C43.5956 76.209 43.8213 76.2118 44.046 76.2118C48.6427 76.2118 53.2394 76.2118 57.8361 76.2118V76.2127Z" fill="#291F69"/>
<path d="M48.4895 71.0491C46.1824 71.0491 43.8754 71.0684 41.5692 71.0308C41.2096 71.0253 40.7244 70.8629 40.5235 70.6005C40.0437 69.9731 40.573 69.2099 41.4711 69.1924C42.5526 69.1713 43.635 69.1952 44.7165 69.1943C48.228 69.1943 51.7395 69.1906 55.251 69.1897C55.3941 69.1897 55.5382 69.1869 55.6785 69.208C56.2527 69.2952 56.5729 69.6676 56.527 70.2098C56.4793 70.773 56.1518 71.0445 55.5941 71.0454C53.9402 71.0473 52.2872 71.0473 50.6333 71.0482C49.9187 71.0482 49.2041 71.0482 48.4895 71.0482V71.0491Z" fill="#291F69"/>
<path d="M70.9114 71.0509C69.8088 71.0509 68.7053 71.0583 67.6027 71.0473C66.9046 71.0409 66.5487 70.718 66.5533 70.1327C66.5569 69.5686 66.944 69.1961 67.6119 69.1925C69.818 69.1796 72.0232 69.1796 74.2294 69.1925C74.9183 69.1961 75.3338 69.5997 75.3182 70.1731C75.3027 70.7381 74.9284 71.0445 74.2202 71.0491C73.1176 71.0555 72.0141 71.0509 70.9114 71.05V71.0509Z" fill="#291F69"/>
</g>
<defs>
<clipPath id="clip0_991_44">
<rect width="85.862" height="120" fill="white"/>
</clipPath>
</defs>
</svg>
