<svg width="120" height="120" viewBox="0 0 120 120" fill="none" xmlns="http://www.w3.org/2000/svg">
<g clip-path="url(#clip0_991_60)">
<path d="M33.7609 67.521C32.1296 67.521 30.4976 67.4035 28.8749 67.1669C21.639 66.1146 15.0737 62.8173 9.88792 57.6323C6.66557 54.41 4.17052 50.652 2.47218 46.4642C0.831422 42.4191 0 38.1444 0 33.7601C0 29.3758 0.831422 25.1012 2.47218 21.0561C4.17052 16.8682 6.66557 13.1103 9.88792 9.88792C13.1103 6.66557 16.8682 4.17052 21.0561 2.47218C25.1012 0.831422 29.3758 0 33.7601 0C38.1444 0 42.4191 0.831422 46.4642 2.47218C50.652 4.17052 54.41 6.66557 57.6323 9.88792C62.8173 15.0729 66.1146 21.639 67.1669 28.8749C67.6733 32.3568 67.6362 35.8805 67.0564 39.3497C66.4703 42.8592 65.3415 46.2307 63.7024 49.3726C63.7 49.3781 63.6968 49.3836 63.6945 49.3891C62.1113 52.419 60.0714 55.1925 57.6323 57.6316C55.1925 60.0714 52.4198 62.1105 49.3899 63.6937C49.3844 63.6968 49.3789 63.6992 49.3733 63.7024C46.2315 65.3415 42.8592 66.4703 39.3505 67.0564C37.4984 67.3657 35.6296 67.5203 33.7617 67.5203L33.7609 67.521ZM33.7601 0.788825C24.9529 0.788825 16.6734 4.21864 10.4456 10.4456C-2.40986 23.3011 -2.40986 44.2184 10.4456 57.0739C20.6909 67.3183 36.1937 69.6982 49.0231 62.9948C49.0286 62.9916 49.0341 62.9893 49.0397 62.9869C51.9922 61.4424 54.6955 59.4529 57.0739 57.0746C59.4522 54.6963 61.4416 51.993 62.9869 49.0405C62.9893 49.0349 62.9924 49.0294 62.9948 49.0239C69.6982 36.1944 67.3191 20.6917 57.0739 10.4464C50.8469 4.21864 42.5666 0.788825 33.7601 0.788825Z" fill="#291F69"/>
<path d="M33.7601 63.6471C29.8783 63.6471 26.0951 62.9112 22.5138 61.4589C18.8064 59.9554 15.4799 57.7467 12.6267 54.8936C9.77352 52.0404 7.56481 48.7139 6.06131 45.0064C4.60908 41.4252 3.87311 37.6419 3.87311 33.7601C3.87311 29.8783 4.60908 26.0951 6.06131 22.5139C7.56481 18.8064 9.77352 15.4799 12.6267 12.6267C15.4799 9.77355 18.8064 7.56484 22.5138 6.06134C26.0951 4.60911 29.8783 3.87314 33.7601 3.87314C37.6419 3.87314 41.4251 4.60911 45.0064 6.06134C48.7139 7.56484 52.0403 9.77355 54.8935 12.6267C57.7467 15.4799 59.9554 18.8064 61.4589 22.5139C62.9111 26.0951 63.6471 29.8783 63.6471 33.7601C63.6471 37.6419 62.9111 41.4252 61.4589 45.0064C59.9554 48.7139 57.7467 52.0404 54.8935 54.8936C52.0403 57.7467 48.7139 59.9554 45.0064 61.4589C41.4251 62.9112 37.6419 63.6471 33.7601 63.6471ZM33.7601 4.66196C25.9878 4.66196 18.6809 7.68869 13.1844 13.1844C7.68787 18.6802 4.66193 25.9878 4.66193 33.7601C4.66193 41.5324 7.68865 48.8401 13.1844 54.3359C18.6801 59.8316 25.9878 62.8583 33.7601 62.8583C41.5324 62.8583 48.8393 59.8316 54.3358 54.3359C59.8316 48.8401 62.8583 41.5324 62.8583 33.7601C62.8583 25.9878 59.8316 18.681 54.3358 13.1844C48.8401 7.6879 41.5324 4.66196 33.7601 4.66196Z" fill="#291F69"/>
<path d="M33.7601 63.6471C29.8783 63.6471 26.0951 62.9112 22.5138 61.4589C18.8064 59.9554 15.4799 57.7467 12.6267 54.8936C9.77352 52.0404 7.56481 48.7139 6.06131 45.0064C4.60908 41.4252 3.87311 37.6419 3.87311 33.7601C3.87311 29.8783 4.60908 26.0951 6.06131 22.5139C7.56481 18.8064 9.77352 15.4799 12.6267 12.6267C15.4799 9.77355 18.8064 7.56484 22.5138 6.06134C26.0943 4.60911 29.8791 3.87314 33.7601 3.87314C37.6419 3.87314 41.4251 4.60911 45.0064 6.06134C48.7139 7.56484 52.0403 9.77355 54.8935 12.6267C57.7467 15.4799 59.9554 18.8064 61.4589 22.5139C62.9111 26.0951 63.6471 29.8783 63.6471 33.7601C63.6471 37.6419 62.9111 41.4252 61.4589 45.0064C59.9554 48.7139 57.7467 52.0404 54.8935 54.8936C52.0403 57.7467 48.7139 59.9554 45.0064 61.4589C41.4251 62.9112 37.6419 63.6471 33.7601 63.6471ZM33.7601 4.67616C26.3089 4.67616 18.8576 7.51278 13.1844 13.1852C1.83873 24.5309 1.83873 42.991 13.1844 54.3366C24.5301 65.6823 42.9902 65.6823 54.3358 54.3366C65.6815 42.991 65.6815 24.5309 54.3358 13.186C48.6634 7.51357 41.2113 4.67695 33.7601 4.67695V4.67616Z" fill="#291F69"/>
<path d="M60.0958 67.2907C59.8118 67.2907 59.5255 67.2024 59.2849 67.0225C55.568 64.2419 49.438 63.7576 49.1785 63.7386C49.0026 63.7252 48.8566 63.5974 48.8211 63.4247C48.7856 63.2519 48.8685 63.0768 49.0247 62.9956C51.9835 61.4495 54.6916 59.4577 57.0746 57.0746C59.4577 54.6916 61.4494 51.9836 62.9955 49.0247C63.0768 48.8685 63.2527 48.7857 63.4247 48.8212C63.5974 48.8567 63.7252 49.0026 63.7386 49.1785C63.7575 49.4388 64.2427 55.568 67.0225 59.2857C67.4224 59.8205 67.3704 60.577 66.9018 61.0456L61.0448 66.9026C60.7868 67.1606 60.4429 67.2923 60.0958 67.2923V67.2907ZM50.4895 63.0934C52.5886 63.3852 56.853 64.2182 59.7566 66.3907C59.983 66.5603 60.2899 66.5398 60.4863 66.3433L66.3433 60.4863C66.5397 60.2899 66.5594 59.983 66.3906 59.7566C64.2182 56.8522 63.3852 52.5878 63.0933 50.4887C61.6064 53.0919 59.7732 55.4899 57.6323 57.6316C55.4914 59.7724 53.0926 61.6057 50.4895 63.0926V63.0934Z" fill="#291F69"/>
<path d="M106.087 114.08C105.997 114.08 105.906 114.049 105.833 113.988C86.4008 97.6289 80.3198 90.3788 64.0258 69.927C63.9012 69.77 63.9138 69.5444 64.0558 69.4024L69.4017 64.0565C69.5437 63.9145 69.7693 63.9019 69.9262 64.0266C90.3781 80.3205 97.6282 86.4016 113.987 105.833C114.119 105.99 114.109 106.222 113.964 106.366L106.365 113.965C106.289 114.041 106.188 114.08 106.086 114.08H106.087ZM64.8628 69.7108C80.8775 89.8093 86.994 97.0767 106.064 113.151L113.15 106.065C97.0752 86.9956 89.8086 80.879 69.7101 64.8643L64.8628 69.7116V69.7108Z" fill="#291F69"/>
<path d="M63.2748 67.159C63.1738 67.159 63.0729 67.1203 62.9956 67.0438L61.6703 65.7186C61.5962 65.6444 61.5552 65.5443 61.5552 65.4393C61.5552 65.3344 61.597 65.2343 61.6703 65.1601L65.1601 61.6703C65.2343 61.5962 65.3344 61.5552 65.4393 61.5552C65.5443 61.5552 65.6444 61.597 65.7186 61.6703L67.0438 62.9956C67.118 63.0697 67.159 63.1699 67.159 63.2748C67.159 63.3797 67.1172 63.4799 67.0438 63.5541L63.5541 67.0438C63.4768 67.1211 63.3758 67.159 63.2748 67.159ZM62.5073 65.4386L63.2748 66.2061L66.2069 63.274L65.4393 62.5065L62.5073 65.4386Z" fill="#291F69"/>
<path d="M64.335 70.0753C64.2301 70.0753 64.1299 70.0335 64.0557 69.9601L62.7518 68.6562C62.4946 68.399 62.3527 68.0567 62.3527 67.693C62.3527 67.3294 62.4946 66.987 62.7518 66.7291L66.7283 62.7526C66.9854 62.4954 67.3278 62.3535 67.6914 62.3535C68.0551 62.3535 68.3974 62.4954 68.6546 62.7526L69.9585 64.0565C70.0327 64.1307 70.0737 64.2309 70.0737 64.3358C70.0737 64.4407 70.0319 64.5409 69.9585 64.615L64.6126 69.9609C64.5385 70.035 64.4383 70.076 64.3334 70.076L64.335 70.0753ZM67.6922 63.1423C67.5392 63.1423 67.3948 63.2022 67.2868 63.3103L63.3103 67.2868C63.2022 67.3948 63.1423 67.5392 63.1423 67.6922C63.1423 67.8453 63.2022 67.9896 63.3103 68.0977L64.335 69.1224L69.1231 64.3342L68.0985 63.3095C67.9904 63.2014 67.846 63.1415 67.693 63.1415L67.6922 63.1423Z" fill="#291F69"/>
<path d="M107.78 117.513C107.758 117.513 107.737 117.511 107.716 117.507C107.59 117.487 107.482 117.406 107.426 117.293L105.734 113.86C105.659 113.708 105.689 113.526 105.809 113.406L113.408 105.807C113.527 105.688 113.71 105.658 113.861 105.733L117.294 107.425C117.409 107.481 117.488 107.589 117.509 107.714C117.529 107.839 117.488 107.967 117.398 108.057L108.06 117.396C107.985 117.471 107.884 117.511 107.78 117.511L107.78 117.513ZM106.566 113.764L107.89 116.45L116.45 107.89L113.764 106.566L106.566 113.764Z" fill="#291F69"/>
<path d="M108.858 120C108.478 120 108.239 119.842 108.106 119.709C106.669 118.272 107.408 116.973 107.44 116.919C107.456 116.89 107.477 116.864 107.5 116.84L116.839 107.501C116.863 107.477 116.889 107.457 116.918 107.44C116.972 107.408 118.272 106.67 119.708 108.107C119.845 108.243 120.006 108.488 119.999 108.881C119.969 110.753 115.772 114.753 115.246 115.247C114.751 115.773 110.75 119.971 108.879 120.001C108.872 120.001 108.864 120.001 108.857 120.001L108.858 120ZM108.103 117.353C108.029 117.521 107.777 118.265 108.664 119.151C108.68 119.168 108.724 119.211 108.857 119.211C108.86 119.211 108.863 119.211 108.867 119.211C110.035 119.192 113.052 116.433 114.68 114.698C114.686 114.691 114.692 114.686 114.698 114.679C116.434 113.051 119.193 110.034 119.212 108.867C119.214 108.725 119.169 108.68 119.152 108.663C118.261 107.772 117.521 108.026 117.355 108.101L108.104 117.353L108.103 117.353Z" fill="#291F69"/>
<path d="M47.4147 17.7864C41.5971 11.9696 32.9232 10.235 25.3165 13.3674L25.0759 12.7837C28.852 11.2289 32.976 10.8132 37.0014 11.5815C41.1254 12.3688 44.8802 14.3598 47.8611 17.3407L47.4147 17.7872V17.7864Z" fill="#291F69"/>
<path d="M42.5784 19.5337C39.4176 15.9477 32.4223 15.1762 28.2794 16.8824L28.1295 16.518C30.2254 15.655 33.1031 15.3963 35.8269 15.8254C38.8283 16.2987 41.3313 17.523 42.8742 19.2734L42.5784 19.5345V19.5337Z" fill="#291F69"/>
</g>
<defs>
<clipPath id="clip0_991_60">
<rect width="120" height="120" fill="white"/>
</clipPath>
</defs>
</svg>
