<svg width="118" height="120" viewBox="0 0 118 120" fill="none" xmlns="http://www.w3.org/2000/svg">
<g clip-path="url(#clip0_991_21)">
<path d="M69.2349 41.9311C68.7832 41.5971 68.3351 41.2576 67.8781 40.9307C67.2723 40.4977 67.1556 39.9409 67.5083 39.3128C67.7034 38.9654 67.9556 38.6393 68.2317 38.3507C73.9628 32.3791 79.6555 26.3683 85.4516 20.46C91.5408 14.2523 98.2455 8.73242 105.046 3.331C105.893 2.65839 106.895 2.17999 107.826 1.6116C107.899 1.69535 107.972 1.77909 108.045 1.86372C107.459 2.48378 106.926 3.16708 106.279 3.71408C102.461 6.93997 98.577 10.0892 94.7898 13.3508C88.8565 18.4617 83.4275 24.0948 78.0528 29.7795C75.0069 33.0018 71.9699 36.2331 68.9044 39.4367C68.4812 39.8785 68.3369 40.2064 68.7565 40.7222C69.0184 41.0438 69.1698 41.4554 69.3703 41.826C69.3248 41.8608 69.2794 41.8955 69.2349 41.9302V41.9311Z" fill="#291F69"/>
<path d="M29.3572 79.0212C28.836 77.7187 28.9625 77.0648 29.9211 76.1348C33.9309 72.2443 37.8909 68.3003 41.9533 64.4651C48.1271 58.6361 54.3704 52.881 60.5843 47.0947C61.8387 45.9267 63.0557 44.7151 64.3608 43.6078C65.2704 42.8363 66.3029 42.2091 67.2802 41.5178C67.355 41.5979 67.4299 41.6772 67.5047 41.7574C66.9996 42.3472 66.5452 42.9904 65.9813 43.5187C58.2583 50.7509 50.4924 57.9385 42.7997 65.2027C39.6166 68.2086 36.5965 71.3881 33.4712 74.4572C32.5153 75.3962 31.3973 76.1731 30.469 77.1352C29.9656 77.6564 29.7046 78.4119 29.3563 79.0221L29.3572 79.0212Z" fill="#291F69"/>
<path d="M75.5691 49.2105C73.3971 47.0279 71.2697 44.8897 69.1422 42.7516L69.3944 42.4924C72.2069 44.4889 74.7396 46.7909 76.8528 49.5847C76.6167 49.4903 76.3806 49.3958 76.1579 49.3067C76.0876 49.329 76.0154 49.3281 75.9904 49.3629C73.226 53.2747 69.7079 56.4988 66.2985 59.8022C59.6517 66.2415 53.3834 73.0318 47.2435 79.9459C45.1036 82.3558 43.0688 84.8574 40.9396 87.277C40.6198 87.6405 40.0728 87.865 39.5881 88.0075C38.9859 88.1839 38.3391 88.2089 37.5908 88.1688C38.0024 87.8953 38.3792 87.4908 38.8309 87.3741C39.948 87.0864 40.5823 86.3131 40.9913 85.6886C38.462 83.0997 35.9934 80.5722 33.5248 78.0448C33.6192 77.945 33.7145 77.8444 33.809 77.7446C35.1239 78.9188 36.4718 80.0582 37.7449 81.276C39.0162 82.4912 40.2126 83.7839 41.5062 85.1086C52.2591 72.6461 64.0375 60.9559 75.5691 49.2105Z" fill="#291F69"/>
<path d="M77.3276 49.656C78.2729 48.4007 79.0898 47.019 80.1847 45.9143C84.4609 41.5997 88.8744 37.4215 93.1426 33.0989C97.523 28.6615 101.78 24.101 106.116 19.6199C108.996 16.6443 111.92 13.7125 114.827 10.7636C114.967 10.6211 115.132 10.5026 115.285 10.3734C115.353 10.418 115.421 10.4625 115.489 10.5071C115.071 11.234 114.761 12.0563 114.214 12.6692C112.946 14.0902 111.552 15.3989 110.231 16.7735C107.1 20.0297 104.031 23.3456 100.849 26.5492C96.511 30.9163 92.078 35.1889 87.7118 39.5284C85.538 41.6888 83.4088 43.8937 81.2832 46.1014C80.0644 47.3673 78.8938 48.6796 77.7009 49.9713C77.5762 49.8662 77.4524 49.762 77.3276 49.6569V49.656Z" fill="#291F69"/>
<path d="M17.8426 106.036C24.0351 100.345 30.0459 94.2722 36.5627 88.7425C36.7141 88.6142 36.9199 88.5492 37.1008 88.4539C37.1685 88.518 37.2353 88.5822 37.303 88.6463C36.3943 89.7109 35.5658 90.8601 34.5626 91.8267C30.943 95.3137 27.2458 98.7204 23.6164 102.197C21.8524 103.886 20.1981 105.69 18.4368 107.381C18.0243 107.776 17.3998 108.021 16.8305 108.166C16.1401 108.34 15.4033 108.335 14.614 108.415C15.2572 107.255 16.7904 107.578 17.4773 106.696C15.4826 104.658 13.5191 102.652 11.5565 100.645C11.6456 100.555 11.7347 100.464 11.8229 100.374C13.8398 102.271 15.8577 104.168 17.8435 106.035L17.8426 106.036Z" fill="#291F69"/>
<path d="M85.0863 33.6762C85.5433 32.9662 85.8818 32.1305 86.4778 31.5675C89.6966 28.5216 92.9207 25.4748 96.2686 22.574C97.6308 21.3936 99.2745 20.5134 100.86 19.6217C102.305 18.8092 103.59 17.855 104.753 16.6657C107.422 13.9387 110.17 11.291 112.884 8.60858C113.086 8.40902 113.271 8.19254 113.631 8.07138C113.441 8.49366 113.328 8.9783 113.047 9.32842C112.173 10.4153 111.278 11.4924 110.314 12.4982C108.584 14.3022 106.792 16.0448 105.038 17.8248C103.95 18.9294 102.73 19.8221 101.292 20.4324C98.3194 21.6939 95.931 23.8035 93.5862 25.938C91.7189 27.6378 90.0004 29.4998 88.1518 31.2209C87.195 32.1109 86.0992 32.8513 85.0658 33.6593L85.0872 33.6753L85.0863 33.6762Z" fill="#291F69"/>
<path d="M83.2047 32.6446C83.7678 31.7867 84.2284 30.8361 84.9126 30.0895C86.8529 27.9692 88.8743 25.922 90.8815 23.864C93.367 21.3143 95.604 18.5856 97.376 15.4737C98.0468 14.296 98.9021 13.177 99.8607 12.2193C102.237 9.8478 104.7 7.56269 107.174 5.29361C107.854 4.66999 108.696 4.22366 109.463 3.69626C109.534 3.77733 109.606 3.8584 109.677 3.93947C108.839 4.73414 107.991 5.519 107.165 6.32614C104.594 8.8411 102.012 11.3463 99.4803 13.9004C98.9422 14.443 98.5208 15.137 98.1725 15.8256C96.6633 18.8056 94.6499 21.4106 92.3586 23.815C90.0227 26.2667 87.6832 28.7149 85.3242 31.1434C84.7371 31.7475 84.0671 32.2704 83.4355 32.8308C83.358 32.7693 83.2805 32.7069 83.2039 32.6455L83.2047 32.6446Z" fill="#291F69"/>
<path d="M2.42049 115.464C2.87662 115.261 3.32028 115.021 3.79245 114.862C5.26508 114.369 6.75552 113.93 8.22191 113.418C8.64686 113.27 9.10567 113.032 9.38629 112.697C10.0749 111.876 10.6353 110.948 11.3115 110.115C11.7935 109.521 12.3814 109.014 13.0077 108.537C12.5944 109.817 12.1311 111.041 11.1146 111.969C9.53685 113.408 7.66867 114.339 5.69537 115.075C4.38756 115.563 3.0548 115.983 1.73718 116.443C1.18127 116.636 0.634272 116.854 0.000854492 117.091C1.19285 114.09 2.37149 111.121 3.55013 108.154C4.02319 110.236 3.06994 112.01 2.33229 114.003C3.67752 112.876 4.8722 111.891 6.03569 110.873C6.15507 110.769 6.05172 110.442 6.12389 110.244C6.23703 109.931 6.41075 109.641 6.55953 109.341C6.85263 109.511 7.38181 109.672 7.38805 109.852C7.39874 110.169 7.13682 110.535 6.90519 110.811C6.67267 111.088 6.30384 111.247 6.05351 111.513C5.20984 112.411 4.40359 113.344 3.55726 114.239C3.19021 114.626 2.75902 114.952 2.35724 115.306C2.37862 115.359 2.4 115.411 2.42138 115.464H2.42049Z" fill="#291F69"/>
<path d="M28.8619 80.5188C28.1296 81.3865 27.4401 82.2952 26.657 83.1148C22.1838 87.7955 17.6885 92.4557 13.1984 97.1204C12.8447 97.4883 12.4919 97.8625 12.1026 98.1894C10.924 99.1792 10.0304 100.361 9.54134 101.832C9.47453 102.034 9.36673 102.224 9.26962 102.416C9.24913 102.456 9.19123 102.476 9.15025 102.506C8.76093 101.19 9.03443 99.7912 9.93333 98.8799C15.4042 93.3341 20.8805 87.7928 26.3737 82.2676C27.0784 81.5593 27.8891 80.9571 28.6516 80.3059C28.722 80.3762 28.7933 80.4475 28.8637 80.5179L28.8619 80.5188Z" fill="#291F69"/>
<path d="M108.812 0.961257C109.602 -0.00445946 110.613 -0.20758 111.659 0.195989C114.554 1.31405 116.49 3.44236 117.601 6.29318C118.047 7.43886 117.447 8.54979 116.163 9.21706C117.495 7.10656 116.575 5.47179 115.203 4.02767C114.305 3.08423 113.283 2.22987 112.207 1.49668C111.21 0.818715 110.035 0.573723 108.812 0.960366V0.961257Z" fill="#291F69"/>
<path d="M115.265 8.69589C113.167 7.62416 112.011 5.48248 110.022 4.17912C110.223 4.04994 110.344 3.97332 110.541 3.84682C109.848 3.15728 109.173 2.48466 108.478 1.79333C110.423 1.96706 114.529 6.16489 115.266 8.69589H115.265Z" fill="#291F69"/>
<path d="M85.0649 33.6602C85.0917 33.8802 85.0409 34.1635 85.1594 34.3079C85.5576 34.7943 85.546 35.2878 85.154 35.6941C83.6226 37.2834 81.9005 38.5636 79.5397 38.7623C79.7294 38.6082 79.9147 38.4469 80.1107 38.3008C81.4916 37.2772 82.884 36.2678 84.2462 35.2201C84.4208 35.0856 84.5758 34.7052 84.5108 34.519C84.3014 33.9177 84.5411 33.7172 85.0845 33.6744C85.0863 33.6753 85.064 33.6593 85.064 33.6593L85.0649 33.6602Z" fill="#291F69"/>
<path d="M70.05 40.5886C70.5837 41.0625 71.12 41.5329 71.6501 42.0104C73.022 43.2487 74.4323 44.4479 75.7437 45.7468C76.4662 46.4622 77.0203 47.3468 77.5744 48.211C76.2684 47.7334 70.859 42.4968 70.05 40.5877V40.5886Z" fill="#291F69"/>
<path d="M38.3569 86.5019C35.2361 84.7309 33.4018 81.7233 31.228 79.0435C31.2948 78.9793 31.3617 78.9152 31.4285 78.8511C33.8196 81.3224 36.2116 83.7946 38.6027 86.2659C38.5208 86.3452 38.4388 86.4236 38.3569 86.5028V86.5019Z" fill="#291F69"/>
<path d="M82.8216 32.7996C82.4662 33.0294 82.0688 33.1568 81.8835 33.4286C80.8715 34.9101 79.9067 36.4246 78.9401 37.9373C78.8002 38.1556 78.7361 38.422 78.4608 38.6705C78.4608 38.3079 78.3744 37.9186 78.475 37.5863C79.0069 35.8339 79.9361 34.3132 81.3107 33.09C81.7437 32.7052 82.2426 32.4735 82.8216 32.8005V32.7996Z" fill="#291F69"/>
<path d="M31.2655 81.3633C33.4651 83.228 35.7538 85.0097 37.14 87.6343C34.7435 85.9541 33.1399 83.5317 31.2655 81.3633Z" fill="#291F69"/>
<path d="M14.1204 108.217C12.3404 107.284 9.97957 105.06 9.38892 103.788C11.2838 105.073 13.1057 106.208 14.1204 108.217Z" fill="#291F69"/>
<path d="M3.86279 107.702C5.1715 106.03 6.80092 104.976 8.67979 104.165C8.29137 105.293 5.69801 107.198 3.86279 107.702Z" fill="#291F69"/>
<path d="M11.447 103.107C12.8349 104.427 14.2229 105.747 15.61 107.067C14.1784 106.914 12.4296 105.273 11.2723 103.28C11.3302 103.222 11.3882 103.165 11.4461 103.107H11.447Z" fill="#291F69"/>
<path d="M1.63205 117.887C5.68735 119.421 10.0509 120.13 14.3832 119.981C16.5454 119.907 18.7058 119.622 20.8118 119.128C22.6631 118.693 24.5598 118.159 26.1464 117.073C27.4525 116.18 28.6855 114.835 28.6614 113.153C28.6472 112.196 28.1946 111.387 27.7349 110.577C27.2191 109.67 26.9865 108.842 27.3215 107.816C27.856 106.18 29.2645 104.745 30.6463 103.775C32.0209 102.81 33.5817 102.161 35.2058 101.752C36.8878 101.328 38.6241 101.168 40.3569 101.2C42.34 101.236 44.2536 101.616 46.1975 101.974C48.3107 102.363 50.5548 102.691 52.6636 102.101C54.2832 101.649 55.8351 100.681 56.7527 99.246C57.2115 98.528 57.4716 97.6968 57.5073 96.846C57.5527 95.7689 57.2329 94.7194 56.979 93.6842C56.5451 91.9141 56.6431 90.233 57.5367 88.6187C59.2035 85.6075 62.5755 83.8204 65.9564 83.7554C72.0964 83.636 79.6635 83.5326 84.0921 78.5633C84.6266 77.9637 85.097 77.3089 85.5023 76.6158C85.848 76.0252 84.9313 75.4907 84.5865 76.0804C81.1673 81.9228 73.6768 82.4885 67.6045 82.6569C65.9243 82.7032 64.2806 82.6792 62.6655 83.2217C61.0601 83.7607 59.5706 84.6596 58.3554 85.84C57.1625 86.9982 56.2119 88.4699 55.8271 90.1002C55.6355 90.9127 55.583 91.7537 55.6872 92.5813C55.8191 93.6299 56.1683 94.6286 56.3563 95.6656C56.6886 97.4999 55.9411 99.1026 54.4106 100.14C52.8123 101.224 50.9397 101.461 49.0492 101.316C46.8461 101.148 44.7062 100.528 42.5119 100.281C40.8237 100.091 39.1123 100.082 37.425 100.281C34.1225 100.671 30.8084 101.854 28.4369 104.268C27.1656 105.562 25.8578 107.396 26.1162 109.305C26.3442 110.994 28.1198 112.291 27.4311 114.092C26.8502 115.61 25.1424 116.605 23.7081 117.169C21.8096 117.915 19.7366 118.348 17.7223 118.634C13.4683 119.238 9.0816 118.961 4.93455 117.844C3.91182 117.569 2.90512 117.239 1.91446 116.865C1.2757 116.624 0.998634 117.648 1.63205 117.888V117.887Z" fill="#291F69"/>
</g>
<defs>
<clipPath id="clip0_991_21">
<rect width="117.747" height="120" fill="white"/>
</clipPath>
</defs>
</svg>
